<svg id="Capa_1" data-name="Capa 1" xmlns="http://www.w3.org/2000/svg" viewBox="0 0 250 250"><defs><style>.cls-1{fill:#004898;}</style></defs><title>alta</title><circle class="cls-1" cx="103.34" cy="87.73" r="18.25"/><path class="cls-1" d="M103.34,114.56c-23.28,0-42.18,7.06-42.18,30.34v41.9H74c.1-14.42,1.13-37.51,6.9-45.06V186.8h44.86V141.72c5.78,7.54,6.81,30.73,6.9,45.05H145.5V144.9C145.52,121.62,126.63,114.56,103.34,114.56Zm6.19,32.56S96.59,136.6,96.59,131.48a6.89,6.89,0,0,1,6.9-6.9,6.78,6.78,0,0,1,6.06,3.71,7,7,0,0,1,6.06-3.71,6.88,6.88,0,0,1,6.9,6.9C122.46,136.86,109.53,147.12,109.53,147.12Z"/><polygon class="cls-1" points="188.84 72.33 179.71 63.2 157.2 85.71 147.69 76.2 138.56 85.33 157.19 103.98 157.2 103.97 157.21 103.98 166.34 94.85 166.33 94.84 188.84 72.33"/></svg>