<svg id="Capa_1" data-name="Capa 1" xmlns="http://www.w3.org/2000/svg" viewBox="0 0 250 250"><defs><style>.cls-1{fill:#004898;}.cls-2{fill:none;}</style></defs><title>aplicaciones por cuidador</title><path class="cls-1" d="M64.2,88.89A26.92,26.92,0,0,1,70,72a46.83,46.83,0,0,1,3.78-3.94,1,1,0,0,0,.36-.74A17.43,17.43,0,0,1,85.44,51.14a16.3,16.3,0,0,1,13.42.65,17.1,17.1,0,0,1,9.42,12.11c.25,1.12.24,2.29.38,3.43A1.11,1.11,0,0,0,109,68a27.24,27.24,0,0,1,9.52,23,26.66,26.66,0,0,1-6.14,15.1,27,27,0,0,1-38.24,3.66,26.83,26.83,0,0,1-9.62-17.15c-.06-.36-.11-.72-.14-1.08C64.29,90.67,64.25,89.78,64.2,88.89Zm7.16-7.7c-3,8.77-1.25,18.31,7.17,24.9a21,21,0,0,0,26.92-1c8-7,8.71-16.34,6-23.92a16.36,16.36,0,0,1-11.21,0,19.34,19.34,0,0,1-8.78-7.09C86.25,81,79.79,83.91,71.36,81.19Zm33-14a12.92,12.92,0,0,0-25.84,0Z"/><path class="cls-1" d="M101.41,93.31a3.68,3.68,0,1,1,3.67-3.68A3.69,3.69,0,0,1,101.41,93.31Z"/><path class="cls-1" d="M81.42,86a3.68,3.68,0,1,1-3.67,3.68A3.69,3.69,0,0,1,81.42,86Z"/><path class="cls-1" d="M89.73,59.62c.07-.78-.17-1.64.56-2.17a2,2,0,0,1,1.08-.4,1.8,1.8,0,0,1,1.06.4,1.92,1.92,0,0,1,.52,1A6.7,6.7,0,0,1,93,59.64h1a1.54,1.54,0,0,1,.08,3.08c-.34,0-.68,0-1.06,0,0,.43,0,.82-.07,1.21a1.62,1.62,0,0,1-3.21-.09c0-.36,0-.71,0-1.1-.79,0-1.62.13-2.13-.59a2,2,0,0,1-.35-1.09C87.28,60.07,87.92,59.71,89.73,59.62Z"/><path class="cls-1" d="M64.2,172.76A26.91,26.91,0,0,1,70,155.87a48.53,48.53,0,0,1,3.78-4,.94.94,0,0,0,.36-.73A17.45,17.45,0,0,1,85.44,135a16.34,16.34,0,0,1,13.42.66,17.1,17.1,0,0,1,9.42,12.11c.25,1.11.24,2.29.38,3.43a1.05,1.05,0,0,0,.31.64,27.25,27.25,0,0,1,9.52,23.06,27.4,27.4,0,0,1-22.38,24.65,26.18,26.18,0,0,1-22-5.89,26.83,26.83,0,0,1-9.62-17.15c-.06-.36-.11-.72-.14-1.08C64.29,174.55,64.25,173.66,64.2,172.76Zm7.16-7.69c-3,8.77-1.25,18.31,7.17,24.89a21,21,0,0,0,26.92-1c8-7.05,8.71-16.34,6-23.92a16.42,16.42,0,0,1-11.21.05A19.34,19.34,0,0,1,91.44,158C86.25,164.85,79.79,167.79,71.36,165.07Zm33-14a12.92,12.92,0,0,0-25.84,0Z"/><path class="cls-1" d="M101.41,177.19a3.68,3.68,0,1,1,3.67-3.68A3.69,3.69,0,0,1,101.41,177.19Z"/><path class="cls-1" d="M81.42,169.84a3.68,3.68,0,1,1-3.67,3.68A3.69,3.69,0,0,1,81.42,169.84Z"/><path class="cls-1" d="M89.73,143.49c.07-.77-.17-1.63.56-2.17a2,2,0,0,1,1.08-.39,1.74,1.74,0,0,1,1.06.4,1.92,1.92,0,0,1,.52,1,6.66,6.66,0,0,1,.09,1.22h1A1.51,1.51,0,0,1,95.56,145a1.53,1.53,0,0,1-1.46,1.61c-.34,0-.68,0-1.06,0,0,.43,0,.82-.07,1.2a1.61,1.61,0,0,1-3.21-.08c0-.36,0-.72,0-1.1-.79,0-1.62.13-2.13-.59a2,2,0,0,1-.35-1.09C87.28,144,87.92,143.58,89.73,143.49Z"/><polygon class="cls-2" points="180.42 79.26 174.54 73.37 160.84 87.07 155.46 81.69 149.58 87.58 160.84 98.84 180.42 79.26"/><path class="cls-1" d="M144.2,172.22v16.64h41.6v-41.6H144.2V163.9h0v8.32Z"/><path class="cls-1" d="M185.8,109.6V67.72H144.2V84.64h0V93h0V109.6ZM155.46,81.69l5.38,5.38,13.7-13.7,5.88,5.89L160.84,98.84,149.58,87.58Z"/></svg>