<svg id="Capa_1" data-name="Capa 1" xmlns="http://www.w3.org/2000/svg" viewBox="0 0 250 250"><defs><style>.cls-1{fill:#004898;}.cls-2{fill:#fff;}.cls-3,.cls-4{fill:none;stroke-miterlimit:10;stroke-width:4px;}.cls-3{stroke:#004898;}.cls-4{stroke:#fff;}</style></defs><title>profesional_2</title><path class="cls-1" d="M129.65,61.17C109.58,61.7,95,73.91,95,73.91c-6.61,5.82-6.88,1.32-6.88,1.32v-36c4.76-11.37,34.92-14,34.92-14l6.62-.23,6.61.23s30.16,2.65,34.92,14v36s-.26,4.5-6.88-1.32C164.3,73.91,149.71,61.7,129.65,61.17Z"/><path class="cls-1" d="M129.65,137.4c-48.2-.62-43.13-55-43.13-55,5.3,4,9.26-1.05,9.26-1.05a42.38,42.38,0,0,1,33.65-14h.44a42.37,42.37,0,0,1,33.64,14s4,5,9.26,1.05C172.77,82.37,177.85,136.78,129.65,137.4Z"/><path class="cls-1" d="M128.38,225c12.66.16,27.38-.71,41.1-4.07,0,0,36.74-8.64,37-27.8.17-11.16-9.34-53.82-41.8-53.81-3.27,0-9.63,2-12.69,3.13-7.84,2.92-13.82,7.49-24,7.7H128c-10.17-.21-16.15-4.78-24-7.7-3.06-1.15-9.42-3.13-12.69-3.13-32.46,0-42,42.65-41.8,53.81.29,19.16,37,27.8,37,27.8,13.72,3.36,28.44,4.23,41.1,4.07Z"/><polygon class="cls-2" points="125.72 33.08 131.45 33.08 131.45 39.63 137.84 39.63 137.84 45.04 131.78 45.04 131.78 50.95 125.95 50.95 125.95 45.79 119.97 45.79 119.97 39.47 125.72 39.47 125.72 33.08"/><circle class="cls-2" cx="107.76" cy="191.21" r="11.83"/><circle class="cls-3" cx="107.76" cy="191.21" r="6.62"/><path class="cls-4" d="M141.29,193.22A21,21,0,0,1,143,183.3c4.38-10.15,15.62-15.06,25.1-11s13.63,15.63,9.25,25.77a21,21,0,0,1-5.59,7.64"/><path class="cls-4" d="M155.5,171.83s13.81-14.71,19-12.38C180.1,162,178,183.88,178,183.88"/><path class="cls-4" d="M101.14,183.88s-25.45-34.12-5.21-50.76"/><path class="cls-4" d="M175,159.2c1.36-8.26.08-16.72-7.34-22.82"/><circle class="cls-4" cx="142.39" cy="195.16" r="2.65"/><circle class="cls-4" cx="169.61" cy="205.75" r="2.65"/></svg>