<svg id="Capa_1" data-name="Capa 1" xmlns="http://www.w3.org/2000/svg" viewBox="0 0 250 250"><defs><style>.cls-1{fill:#004898;}</style></defs><title>cambio de piso</title><path class="cls-1" d="M197.44,74.21H167.23a8.41,8.41,0,0,0-8.41,8.4v21.81H137a8.4,8.4,0,0,0-8.4,8.4v21.82H106.8a8.4,8.4,0,0,0-8.41,8.4V165.9H75.53a8.4,8.4,0,0,0-8.4,8.4v17.58a8.41,8.41,0,0,0,8.41,8.41h121.9a8.4,8.4,0,0,0,8.4-8.41V82.61A8.4,8.4,0,0,0,197.44,74.21Z"/><rect class="cls-1" x="42.74" y="121.85" width="56.54" height="13" transform="translate(-69.95 87.8) rotate(-44.99)"/><polygon class="cls-1" points="86.41 152.06 86.17 145.29 52.87 146.51 54.08 113.2 47.32 112.96 45.85 153.53 86.41 152.06"/><rect class="cls-1" x="48.15" y="70.55" width="56.54" height="13" transform="translate(-32.1 76.6) rotate(-45)"/><polygon class="cls-1" points="61.03 53.34 61.27 60.11 94.58 58.89 93.36 92.2 100.12 92.44 101.6 51.87 61.03 53.34"/></svg>