<svg id="Capa_1" data-name="Capa 1" xmlns="http://www.w3.org/2000/svg" viewBox="0 0 250 250"><defs><style>.cls-1{fill:#004898;}</style></defs><title>Citas medicas</title><path class="cls-1" d="M68,72.75v-19a4.75,4.75,0,0,1,9.5,0v19a4.75,4.75,0,0,1-9.5,0Zm80.75,4.75a4.74,4.74,0,0,0,4.75-4.75v-19a4.75,4.75,0,0,0-9.5,0v19A4.75,4.75,0,0,0,148.75,77.5ZM201,163a38,38,0,1,1-38-38A38,38,0,0,1,201,163Zm-9.5,0A28.5,28.5,0,1,0,163,191.5,28.53,28.53,0,0,0,191.5,163ZM87,106H68v19H87ZM68,153.5H87v-19H68ZM96.5,125h19V106h-19Zm0,28.5h19v-19h-19Zm-38,8.55V96.5H163v19h9.5v-37A10.37,10.37,0,0,0,162.21,68h-4v4.75a9.5,9.5,0,0,1-19,0V68h-57v4.75a9.5,9.5,0,0,1-19,0V68h-4A10.37,10.37,0,0,0,49,78.45v83.6A10.38,10.38,0,0,0,59.29,172.5H115.5V163H59.29A.9.9,0,0,1,58.5,162.05ZM144,125V106H125v19Zm33.25,38H163V148.75a4.75,4.75,0,0,0-9.5,0v19a4.75,4.75,0,0,0,4.75,4.75h19a4.75,4.75,0,0,0,0-9.5Z"/></svg>