<svg id="Capa_1" data-name="Capa 1" xmlns="http://www.w3.org/2000/svg" viewBox="0 0 250 250"><defs><style>.cls-1{fill:#004898;}</style></defs><title>datos del paciente</title><path class="cls-1" d="M80.26,200h90.48c5.39,0,9.87-4.12,9.87-9.18V81.07c0-5.06-4.48-9.22-9.87-9.22H155.83v8.38a2.66,2.66,0,0,1-2.58,2.7H97.58a2.79,2.79,0,0,1-2.73-2.7V71.85H80.26c-5.39,0-9.87,4.16-9.87,9.22V190.82C70.39,195.88,74.87,200,80.26,200Zm20.13-84.13a2.61,2.61,0,0,1,2.61-2.61h13.37V99.89A2.61,2.61,0,0,1,119,97.28h13a2.61,2.61,0,0,1,2.61,2.61v13.37H148a2.61,2.61,0,0,1,2.61,2.61v13a2.61,2.61,0,0,1-2.61,2.61H134.63v13.37A2.61,2.61,0,0,1,132,147.5H119a2.61,2.61,0,0,1-2.61-2.61V131.52H103a2.61,2.61,0,0,1-2.61-2.61Zm1.06,45h48.1a2.61,2.61,0,0,1,0,5.22h-48.1a2.61,2.61,0,1,1,0-5.22Zm-9.78,13h67.66a2.61,2.61,0,0,1,0,5.22H91.67a2.61,2.61,0,0,1,0-5.22Z"/><path class="cls-1" d="M150.61,60.11H138.4a2.61,2.61,0,0,1-2.55-2.06,10.62,10.62,0,0,0-10.53-8h0a10.85,10.85,0,0,0-10.52,8.15,2.6,2.6,0,0,1-2.52,2H100.07V77.72h50.54Z"/><path class="cls-1" d="M121.59,128.91v13.37h7.82V128.91A2.61,2.61,0,0,1,132,126.3h13.37v-7.82H132a2.61,2.61,0,0,1-2.61-2.61V102.5h-7.82v13.37a2.61,2.61,0,0,1-2.61,2.61H105.61v7.82H119A2.61,2.61,0,0,1,121.59,128.91Z"/></svg>