<svg id="Capa_1" data-name="Capa 1" xmlns="http://www.w3.org/2000/svg" viewBox="0 0 250 250"><defs><style>.cls-1{fill:#004898;}</style></defs><title>diagnostico</title><path class="cls-1" d="M150.48,50H65.14V200H184.86V84.41Zm16.9,128.08H82.65a3.09,3.09,0,0,1,0-6.18h84.61a3.08,3.08,0,0,1,3.09,3.09A3,3,0,0,1,167.38,178.08Zm0-26.17H82.65a3.1,3.1,0,0,1,0-6.19h84.61a3.09,3.09,0,0,1,3.09,3.1A3,3,0,0,1,167.38,151.91Zm0-30.61H149.29L145.4,126a3.06,3.06,0,0,1-5.29-1l-6.06-18.46-7.63,28.32c-1.44,3.46-5,2.57-5.84.12l-6.19-19.87s-2.78,6.31-5.72,6.31h-26a3.1,3.1,0,0,1,0-6.19H107l5.81-8.9a3.05,3.05,0,0,1,5.48.76l5,16L130.86,95c1.56-4,5.54-1.84,5.85-.12l7.62,23s2.3-3.49,3.71-2.64h19.4a3.09,3.09,0,0,1,3.1,3.1A3,3,0,0,1,167.38,121.3ZM144.3,90.47V56.09L178.83,90.5H144.3Z"/></svg>