<svg id="Capa_1" data-name="Capa 1" xmlns="http://www.w3.org/2000/svg" viewBox="0 0 250 250"><defs><style>.cls-1,.cls-2{fill:#004898;}.cls-2{stroke:#fff;stroke-linecap:round;stroke-miterlimit:10;stroke-width:10px;}</style></defs><title>egreso</title><path class="cls-1" d="M79.76,200h90.48c5.39,0,9.87-4.12,9.87-9.18V81.07c0-5.06-4.48-9.22-9.87-9.22H155.33v8.38a2.66,2.66,0,0,1-2.58,2.7H97.08a2.79,2.79,0,0,1-2.73-2.7V71.85H79.76c-5.39,0-9.87,4.16-9.87,9.22V190.82C69.89,195.88,74.37,200,79.76,200Zm11.41-26.09h67.66a2.61,2.61,0,0,1,0,5.22H91.17a2.61,2.61,0,0,1,0-5.22Z"/><path class="cls-1" d="M150.11,60.11H137.9a2.61,2.61,0,0,1-2.55-2.06,10.62,10.62,0,0,0-10.53-8h0a10.85,10.85,0,0,0-10.52,8.15,2.6,2.6,0,0,1-2.52,2H99.57V77.72h50.54Z"/><path class="cls-2" d="M151.2,114.67l-31.79,31.79a1,1,0,0,1-1.4,0l-14.73-14.74"/></svg>