<svg id="Capa_1" data-name="Capa 1" xmlns="http://www.w3.org/2000/svg" viewBox="0 0 250 250"><defs><style>.cls-1{fill:none;}.cls-2{fill:#004898;}</style></defs><title>equipos biomedicos</title><rect class="cls-1" x="102.74" y="70.89" width="43.84" height="10.96"/><path class="cls-2" d="M180.14,81.85H156.85V68.15a7.53,7.53,0,0,0-7.53-7.53H100a7.53,7.53,0,0,0-7.53,7.53v13.7H69.86A19.86,19.86,0,0,0,50,101.71v67.81a19.86,19.86,0,0,0,19.86,19.86H180.14A19.86,19.86,0,0,0,200,169.52V101.71A19.86,19.86,0,0,0,180.14,81.85Zm-77.4-11h43.84v11H102.74Zm54.11,71.92a2.74,2.74,0,0,1-2.74,2.74H135.27v18.83a2.73,2.73,0,0,1-2.74,2.74H117.47a2.73,2.73,0,0,1-2.74-2.74V145.55H95.89a2.74,2.74,0,0,1-2.74-2.74V127.74A2.74,2.74,0,0,1,95.89,125h18.84V106.16a2.74,2.74,0,0,1,2.74-2.74h15.06a2.74,2.74,0,0,1,2.74,2.74V125h18.84a2.74,2.74,0,0,1,2.74,2.74Z"/></svg>