<svg id="Capa_1" data-name="Capa 1" xmlns="http://www.w3.org/2000/svg" viewBox="0 0 250 250"><defs><style>.cls-1{fill:#004898;}</style></defs><title>home</title><path class="cls-1" d="M197.48,117.06l-67.3-61.33a7.66,7.66,0,0,0-10.36,0l-67.3,61.33a7.69,7.69,0,0,0,5.18,13.37H68.45v61.44a4.41,4.41,0,0,0,4.41,4.42h36.89a4.41,4.41,0,0,0,4.41-4.42v-37.3h21.68v37.31a4.42,4.42,0,0,0,4.41,4.41h36.89a4.42,4.42,0,0,0,4.41-4.41V130.43H192.3a7.69,7.69,0,0,0,5.18-13.37Z"/><path class="cls-1" d="M180.4,62.52H150.77l34,30.95V66.93A4.41,4.41,0,0,0,180.4,62.52Z"/></svg>