<svg id="Capa_1" data-name="Capa 1" xmlns="http://www.w3.org/2000/svg" viewBox="0 0 250 250"><defs><style>.cls-1,.cls-2{fill:#004898;}.cls-2{stroke:#fff;stroke-linecap:round;stroke-miterlimit:10;stroke-width:5px;}</style></defs><title>info paciente</title><path class="cls-1" d="M129.25,99.87a42.56,42.56,0,0,1,3.49-16.94H97.08a2.79,2.79,0,0,1-2.73-2.7V71.85H79.76c-5.39,0-9.87,4.16-9.87,9.22V190.82c0,5.06,4.48,9.18,9.87,9.18h90.48c5.39,0,9.87-4.12,9.87-9.18V142a42.83,42.83,0,0,1-50.86-42.12Z"/><path class="cls-1" d="M150.11,63.09v-3H137.9a2.61,2.61,0,0,1-2.55-2.06,10.62,10.62,0,0,0-10.53-8h0a10.85,10.85,0,0,0-10.52,8.15,2.6,2.6,0,0,1-2.52,2H99.57V77.72h35.85A43.29,43.29,0,0,1,150.11,63.09Z"/><circle class="cls-1" cx="172.12" cy="99.87" r="34.88"/><rect class="cls-2" x="85" y="158.11" width="18.89" height="18.89"/><line class="cls-2" x1="117.63" y1="170.13" x2="153.69" y2="170.13"/><rect class="cls-2" x="85.43" y="114.06" width="18.89" height="18.89"/><line class="cls-2" x1="118.06" y1="126.08" x2="127.5" y2="126.08"/><line class="cls-2" x1="118.06" y1="147.08" x2="146.5" y2="147.08"/><path class="cls-1" d="M180.41,117.1l-.63,2.57q-2.84,1.11-4.51,1.7a11.92,11.92,0,0,1-3.91.58,7.8,7.8,0,0,1-5.32-1.67,5.37,5.37,0,0,1-1.9-4.24,14.38,14.38,0,0,1,.14-2,22.9,22.9,0,0,1,.46-2.35l2.35-8.34c.21-.8.39-1.55.53-2.27a9.47,9.47,0,0,0,.22-2,3,3,0,0,0-.66-2.23,3.77,3.77,0,0,0-2.52-.63,6.5,6.5,0,0,0-1.87.29q-1,.28-1.65.54l.63-2.57c1.54-.63,3-1.16,4.43-1.61a13.14,13.14,0,0,1,4-.67,7.63,7.63,0,0,1,5.24,1.64,5.45,5.45,0,0,1,1.84,4.27c0,.36,0,1-.12,1.91a13.15,13.15,0,0,1-.48,2.51l-2.34,8.3a22.61,22.61,0,0,0-.52,2.29,12.32,12.32,0,0,0-.23,1.94,2.82,2.82,0,0,0,.74,2.26,4.18,4.18,0,0,0,2.57.6,7.79,7.79,0,0,0,1.94-.3A11.49,11.49,0,0,0,180.41,117.1ZM181,82.25a4.88,4.88,0,0,1-1.64,3.7,5.58,5.58,0,0,1-4,1.53,5.66,5.66,0,0,1-4-1.53,4.87,4.87,0,0,1-1.66-3.7,4.92,4.92,0,0,1,1.66-3.71,5.61,5.61,0,0,1,4-1.54,5.54,5.54,0,0,1,4,1.54A4.9,4.9,0,0,1,181,82.25Z"/><path class="cls-1" d="M145.18,77.72a35.7,35.7,0,0,0-3.55,5.21h11.12a2.66,2.66,0,0,0,2.58-2.7V71.85h14.91c5.39,0,9.87,4.16,9.87,9.22v52.75a34.88,34.88,0,1,0-30-61v4.9Z"/><path class="cls-1" d="M145.18,77.72h4.93v-4.9A35.67,35.67,0,0,0,145.18,77.72Z"/></svg>