<svg id="Capa_1" data-name="Capa 1" xmlns="http://www.w3.org/2000/svg" viewBox="0 0 250 250"><defs><style>.cls-1{fill:#004898;}</style></defs><title>pre-alta</title><polygon class="cls-1" points="193.95 98.21 193.99 98.17 160.77 65.04 151.64 74.17 168.73 91.26 123.85 91.26 123.85 104.17 169.73 104.17 151.64 122.26 160.77 131.39 193.99 98.26 193.95 98.21"/><path class="cls-1" d="M148.74,183.49h-3.27a7.86,7.86,0,0,0,.52-5.17l-9.34-38.71a7.87,7.87,0,0,0-7.68-6l-12,0-.33-2.06-13.79.35a8.69,8.69,0,0,1-8.84-7.84l-1.91-20,6,18.58a6.6,6.6,0,0,0,6.79,4.55l24.26-.61a6.56,6.56,0,1,0-.33-13.11l-19.73.5-5.48-17.07,7.18,12.37,2.32-.06-1.66-10.38a11,11,0,0,0-12.67-9.1l-4.63.78a16.33,16.33,0,0,0-13.36,19l5.56,31.14h0a30.33,30.33,0,0,1,4.49-.34,29.49,29.49,0,0,1,21.31,9.08h0a29.84,29.84,0,0,1,5.68,8.37,4.75,4.75,0,0,0,1.49-8.39l3.47,0L130.69,182a8.93,8.93,0,0,0,.52,1.48H117.16a30.16,30.16,0,0,1-3.46,5.25h35a2.63,2.63,0,0,0,0-5.25Z"/><path class="cls-1" d="M111.92,158.63h0a23.9,23.9,0,1,0,2.83,11.28A23.89,23.89,0,0,0,111.92,158.63ZM90.85,176.55a6.64,6.64,0,1,1,6.64-6.64A6.63,6.63,0,0,1,90.85,176.55Z"/><circle class="cls-1" cx="99.77" cy="70.66" r="14.47"/><path class="cls-1" d="M71.58,100.72a4.76,4.76,0,0,0-4.67-3.84h-7.5s0-.09-.07-.14L56,106.4h7l8.22,41.81a29.65,29.65,0,0,1,8.65-5.35Z"/></svg>