<svg id="Capa_1" data-name="Capa 1" xmlns="http://www.w3.org/2000/svg" viewBox="0 0 250 250"><defs><style>.cls-1,.cls-3{fill:#004898;}.cls-2{fill:#fff;}.cls-3{stroke:#fff;stroke-linecap:round;stroke-miterlimit:10;stroke-width:8px;}</style></defs><title>visita cancelada</title><circle class="cls-1" cx="170.12" cy="99.87" r="34.88"/><path class="cls-2" d="M85.07,140.37c-.78-.05-1.57,1.67-2.35,1.9-.78-.23-1.57-2-2.35-1.9-6.61.47-13.57,2.57-16.28,7,0,0-9.39,16.31-1.49,25.34h40.24c7.9-9-1.49-25.34-1.49-25.34C98.64,142.94,91.68,140.84,85.07,140.37Z"/><rect class="cls-2" x="127.68" y="162.87" width="37.64" height="9.75" rx="2.05" ry="2.05"/><path class="cls-2" d="M82.5,138.85a13.11,13.11,0,1,0-13.11-13.11A13.1,13.1,0,0,0,82.5,138.85Z"/><path class="cls-1" d="M127.26,100.31H47.89A2.88,2.88,0,0,0,45,103.19v78.93A2.89,2.89,0,0,0,47.89,185H180.22a2.9,2.9,0,0,0,2.89-2.89V140.73a42.85,42.85,0,0,1-55.85-40.42ZM82.5,112.64a13.11,13.11,0,1,1-13.11,13.1A13.1,13.1,0,0,1,82.5,112.64Zm20.34,60H62.6c-7.9-9,1.49-25.34,1.49-25.34,2.71-4.4,9.67-6.5,16.28-7,.78-.05,1.57,1.67,2.35,1.9.78-.23,1.57-2,2.35-1.9,6.61.47,13.57,2.57,16.28,7C101.35,147.34,110.74,163.65,102.84,172.68Zm62.49-2.11a2.05,2.05,0,0,1-2.06,2.05H129.74a2.05,2.05,0,0,1-2.06-2.05v-5.65a2.05,2.05,0,0,1,2.06-2h33.53a2.05,2.05,0,0,1,2.06,2Z"/><line class="cls-3" x1="157.92" y1="87.66" x2="182.77" y2="112.51"/><line class="cls-3" x1="182.77" y1="87.66" x2="157.92" y2="112.51"/></svg>