<?xml version="1.0" encoding="UTF-8" standalone="no"?>
<!DOCTYPE svg PUBLIC "-//W3C//DTD SVG 1.1//EN"
 "http://www.w3.org/Graphics/SVG/1.1/DTD/svg11.dtd">
<!-- Generated by graphviz version 2.40.1 (20161225.0304)
 -->
<!-- Title: dependencies Pages: 1 -->
<svg width="1047pt" height="284pt"
 viewBox="0.00 0.00 1047.00 284.00" xmlns="http://www.w3.org/2000/svg" xmlns:xlink="http://www.w3.org/1999/xlink">
<g id="graph0" class="graph" transform="scale(1 1) rotate(0) translate(4 280)">
<title>dependencies</title>
<polygon fill="#ffffff" stroke="transparent" points="-4,4 -4,-280 1043,-280 1043,4 -4,4"/>
<text text-anchor="start" x="498.5091" y="-42.4" font-family="sans-serif" font-weight="bold" font-size="14.00" fill="#000000">Legend</text>
<polygon fill="#ffffb3" stroke="transparent" points="285.5,-10 285.5,-30 305.5,-30 305.5,-10 285.5,-10"/>
<text text-anchor="start" x="309.129" y="-15.4" font-family="sans-serif" font-size="14.00" fill="#000000"> &#160;Declarations</text>
<polygon fill="#8dd3c7" stroke="transparent" points="398.5,-10 398.5,-30 418.5,-30 418.5,-10 398.5,-10"/>
<text text-anchor="start" x="422.2251" y="-15.4" font-family="sans-serif" font-size="14.00" fill="#000000"> &#160;Module</text>
<polygon fill="#80b1d3" stroke="transparent" points="484.5,-10 484.5,-30 504.5,-30 504.5,-10 484.5,-10"/>
<text text-anchor="start" x="508.2812" y="-15.4" font-family="sans-serif" font-size="14.00" fill="#000000"> &#160;Bootstrap</text>
<polygon fill="#fdb462" stroke="transparent" points="581.5,-10 581.5,-30 601.5,-30 601.5,-10 581.5,-10"/>
<text text-anchor="start" x="605.1732" y="-15.4" font-family="sans-serif" font-size="14.00" fill="#000000"> &#160;Providers</text>
<polygon fill="#fb8072" stroke="transparent" points="677.5,-10 677.5,-30 697.5,-30 697.5,-10 677.5,-10"/>
<text text-anchor="start" x="701.2258" y="-15.4" font-family="sans-serif" font-size="14.00" fill="#000000"> &#160;Exports</text>
<g id="clust1" class="cluster">
<title>cluster_SharedModule</title>
<polygon fill="none" stroke="#000000" stroke-dasharray="1,5" points="8,-70 8,-268 1031,-268 1031,-70 8,-70"/>
</g>
<g id="clust2" class="cluster">
<title>cluster_SharedModule_declarations</title>
<polygon fill="none" stroke="#000000" points="385,-78 385,-130 1023,-130 1023,-78 385,-78"/>
</g>
<g id="clust8" class="cluster">
<title>cluster_SharedModule_exports</title>
<polygon fill="none" stroke="#000000" points="386,-208 386,-260 798,-260 798,-208 386,-208"/>
</g>
<g id="clust10" class="cluster">
<title>cluster_SharedModule_providers</title>
<polygon fill="none" stroke="#000000" points="16,-78 16,-130 377,-130 377,-78 16,-78"/>
</g>
<!-- MenuComponent -->
<g id="node1" class="node">
<title>MenuComponent</title>
<polygon fill="#ffffb3" stroke="#000000" points="1014.9916,-122 901.0084,-122 901.0084,-86 1014.9916,-86 1014.9916,-122"/>
<text text-anchor="middle" x="958" y="-99.8" font-family="Times,serif" font-size="14.00" fill="#000000">MenuComponent</text>
</g>
<!-- SharedModule -->
<g id="node5" class="node">
<title>SharedModule</title>
<polygon fill="#8dd3c7" stroke="#000000" points="645.4231,-187 642.4231,-191 621.4231,-191 618.4231,-187 546.5769,-187 546.5769,-151 645.4231,-151 645.4231,-187"/>
<text text-anchor="middle" x="596" y="-164.8" font-family="Times,serif" font-size="14.00" fill="#000000">SharedModule</text>
</g>
<!-- MenuComponent&#45;&gt;SharedModule -->
<g id="edge1" class="edge">
<title>MenuComponent&#45;&gt;SharedModule</title>
<path fill="none" stroke="#000000" d="M958,-122.1061C958,-141.3391 958,-169 958,-169 958,-169 655.5755,-169 655.5755,-169"/>
<polygon fill="#000000" stroke="#000000" points="655.5756,-165.5001 645.5755,-169 655.5755,-172.5001 655.5756,-165.5001"/>
</g>
<!-- InicioComponent -->
<g id="node2" class="node">
<title>InicioComponent</title>
<polygon fill="#ffffb3" stroke="#000000" points="882.9888,-122 769.0112,-122 769.0112,-86 882.9888,-86 882.9888,-122"/>
<text text-anchor="middle" x="826" y="-99.8" font-family="Times,serif" font-size="14.00" fill="#000000">InicioComponent</text>
</g>
<!-- InicioComponent&#45;&gt;SharedModule -->
<g id="edge2" class="edge">
<title>InicioComponent&#45;&gt;SharedModule</title>
<path fill="none" stroke="#000000" d="M779.3757,-122.027C779.3757,-138.3976 779.3757,-160 779.3757,-160 779.3757,-160 655.6241,-160 655.6241,-160"/>
<polygon fill="#000000" stroke="#000000" points="655.6241,-156.5001 645.6241,-160 655.6241,-163.5001 655.6241,-156.5001"/>
</g>
<!-- HeaderComponent -->
<g id="node3" class="node">
<title>HeaderComponent</title>
<polygon fill="#ffffb3" stroke="#000000" points="750.7437,-122 629.2563,-122 629.2563,-86 750.7437,-86 750.7437,-122"/>
<text text-anchor="middle" x="690" y="-99.8" font-family="Times,serif" font-size="14.00" fill="#000000">HeaderComponent</text>
</g>
<!-- HeaderComponent&#45;&gt;SharedModule -->
<g id="edge3" class="edge">
<title>HeaderComponent&#45;&gt;SharedModule</title>
<path fill="none" stroke="#000000" d="M637.1697,-122.1061C637.1697,-122.1061 637.1697,-140.991 637.1697,-140.991"/>
<polygon fill="#000000" stroke="#000000" points="633.6698,-140.9909 637.1697,-150.991 640.6698,-140.991 633.6698,-140.9909"/>
</g>
<!-- ResultadoBusquedaGridComponent -->
<g id="node4" class="node">
<title>ResultadoBusquedaGridComponent</title>
<polygon fill="#ffffb3" stroke="#000000" points="611.1923,-122 392.8077,-122 392.8077,-86 611.1923,-86 611.1923,-122"/>
<text text-anchor="middle" x="502" y="-99.8" font-family="Times,serif" font-size="14.00" fill="#000000">ResultadoBusquedaGridComponent</text>
</g>
<!-- ResultadoBusquedaGridComponent&#45;&gt;SharedModule -->
<g id="edge4" class="edge">
<title>ResultadoBusquedaGridComponent&#45;&gt;SharedModule</title>
<path fill="none" stroke="#000000" d="M578.9425,-122.1061C578.9425,-122.1061 578.9425,-140.991 578.9425,-140.991"/>
<polygon fill="#000000" stroke="#000000" points="575.4426,-140.9909 578.9425,-150.991 582.4426,-140.991 575.4426,-140.9909"/>
</g>
<!-- MenuComponent  -->
<g id="node6" class="node">
<title>MenuComponent </title>
<polygon fill="#fb8072" stroke="#000000" points="789.9926,-252 672.0074,-252 672.0074,-216 789.9926,-216 789.9926,-252"/>
<text text-anchor="middle" x="731" y="-229.8" font-family="Times,serif" font-size="14.00" fill="#000000">MenuComponent </text>
</g>
<!-- SharedModule&#45;&gt;MenuComponent  -->
<g id="edge5" class="edge">
<title>SharedModule&#45;&gt;MenuComponent </title>
<path fill="none" stroke="#000000" stroke-dasharray="5,2" d="M645.3443,-178C676.754,-178 711.563,-178 711.563,-178 711.563,-178 711.563,-205.973 711.563,-205.973"/>
<polygon fill="#000000" stroke="#000000" points="708.063,-205.973 711.563,-215.973 715.063,-205.973 708.063,-205.973"/>
</g>
<!-- InicioComponent  -->
<g id="node7" class="node">
<title>InicioComponent </title>
<polygon fill="#fb8072" stroke="#000000" points="654.9898,-252 537.0102,-252 537.0102,-216 654.9898,-216 654.9898,-252"/>
<text text-anchor="middle" x="596" y="-229.8" font-family="Times,serif" font-size="14.00" fill="#000000">InicioComponent </text>
</g>
<!-- SharedModule&#45;&gt;InicioComponent  -->
<g id="edge6" class="edge">
<title>SharedModule&#45;&gt;InicioComponent </title>
<path fill="none" stroke="#000000" stroke-dasharray="5,2" d="M596,-187.1061C596,-187.1061 596,-205.991 596,-205.991"/>
<polygon fill="#000000" stroke="#000000" points="592.5001,-205.9909 596,-215.991 599.5001,-205.991 592.5001,-205.9909"/>
</g>
<!-- HeaderComponent  -->
<g id="node8" class="node">
<title>HeaderComponent </title>
<polygon fill="#fb8072" stroke="#000000" points="519.7436,-252 394.2564,-252 394.2564,-216 519.7436,-216 519.7436,-252"/>
<text text-anchor="middle" x="457" y="-229.8" font-family="Times,serif" font-size="14.00" fill="#000000">HeaderComponent </text>
</g>
<!-- SharedModule&#45;&gt;HeaderComponent  -->
<g id="edge7" class="edge">
<title>SharedModule&#45;&gt;HeaderComponent </title>
<path fill="none" stroke="#000000" stroke-dasharray="5,2" d="M546.6024,-178C506.6498,-178 457,-178 457,-178 457,-178 457,-205.973 457,-205.973"/>
<polygon fill="#000000" stroke="#000000" points="453.5001,-205.973 457,-215.973 460.5001,-205.973 453.5001,-205.973"/>
</g>
<!-- PerfilService -->
<g id="node9" class="node">
<title>PerfilService</title>
<ellipse fill="#fdb462" stroke="#000000" cx="308" cy="-104" rx="61.3877" ry="18"/>
<text text-anchor="middle" x="308" y="-99.8" font-family="Times,serif" font-size="14.00" fill="#000000">PerfilService</text>
</g>
<!-- PerfilService&#45;&gt;SharedModule -->
<g id="edge8" class="edge">
<title>PerfilService&#45;&gt;SharedModule</title>
<path fill="none" stroke="#000000" d="M308,-122.027C308,-138.3976 308,-160 308,-160 308,-160 536.491,-160 536.491,-160"/>
<polygon fill="#000000" stroke="#000000" points="536.4911,-163.5001 546.491,-160 536.491,-156.5001 536.4911,-163.5001"/>
</g>
<!-- ComunUseCaseService -->
<g id="node10" class="node">
<title>ComunUseCaseService</title>
<ellipse fill="#fdb462" stroke="#000000" cx="126" cy="-104" rx="102.4255" ry="18"/>
<text text-anchor="middle" x="126" y="-99.8" font-family="Times,serif" font-size="14.00" fill="#000000">ComunUseCaseService</text>
</g>
<!-- ComunUseCaseService&#45;&gt;SharedModule -->
<g id="edge9" class="edge">
<title>ComunUseCaseService&#45;&gt;SharedModule</title>
<path fill="none" stroke="#000000" d="M126,-122.1061C126,-141.3391 126,-169 126,-169 126,-169 536.5901,-169 536.5901,-169"/>
<polygon fill="#000000" stroke="#000000" points="536.5901,-172.5001 546.5901,-169 536.5901,-165.5001 536.5901,-172.5001"/>
</g>
</g>
</svg>
