<?xml version="1.0" encoding="UTF-8" standalone="no"?>
<!DOCTYPE svg PUBLIC "-//W3C//DTD SVG 1.1//EN"
 "http://www.w3.org/Graphics/SVG/1.1/DTD/svg11.dtd">
<!-- Generated by graphviz version 2.40.1 (20161225.0304)
 -->
<!-- Title: dependencies Pages: 1 -->
<svg width="4187pt" height="211pt"
 viewBox="0.00 0.00 4187.00 211.00" xmlns="http://www.w3.org/2000/svg" xmlns:xlink="http://www.w3.org/1999/xlink">
<g id="graph0" class="graph" transform="scale(1 1) rotate(0) translate(4 207)">
<title>dependencies</title>
<polygon fill="#ffffff" stroke="transparent" points="-4,4 -4,-207 4183,-207 4183,4 -4,4"/>
<text text-anchor="start" x="2068.5091" y="-42.4" font-family="sans-serif" font-weight="bold" font-size="14.00" fill="#000000">Legend</text>
<polygon fill="#ffffb3" stroke="transparent" points="1855.5,-10 1855.5,-30 1875.5,-30 1875.5,-10 1855.5,-10"/>
<text text-anchor="start" x="1879.129" y="-15.4" font-family="sans-serif" font-size="14.00" fill="#000000"> &#160;Declarations</text>
<polygon fill="#8dd3c7" stroke="transparent" points="1968.5,-10 1968.5,-30 1988.5,-30 1988.5,-10 1968.5,-10"/>
<text text-anchor="start" x="1992.2251" y="-15.4" font-family="sans-serif" font-size="14.00" fill="#000000"> &#160;Module</text>
<polygon fill="#80b1d3" stroke="transparent" points="2054.5,-10 2054.5,-30 2074.5,-30 2074.5,-10 2054.5,-10"/>
<text text-anchor="start" x="2078.2812" y="-15.4" font-family="sans-serif" font-size="14.00" fill="#000000"> &#160;Bootstrap</text>
<polygon fill="#fdb462" stroke="transparent" points="2151.5,-10 2151.5,-30 2171.5,-30 2171.5,-10 2151.5,-10"/>
<text text-anchor="start" x="2175.1732" y="-15.4" font-family="sans-serif" font-size="14.00" fill="#000000"> &#160;Providers</text>
<polygon fill="#fb8072" stroke="transparent" points="2247.5,-10 2247.5,-30 2267.5,-30 2267.5,-10 2247.5,-10"/>
<text text-anchor="start" x="2271.2258" y="-15.4" font-family="sans-serif" font-size="14.00" fill="#000000"> &#160;Exports</text>
<g id="clust1" class="cluster">
<title>cluster_RemisionModule</title>
<polygon fill="none" stroke="#000000" stroke-dasharray="1,5" points="8,-70 8,-195 4171,-195 4171,-70 8,-70"/>
</g>
<g id="clust2" class="cluster">
<title>cluster_RemisionModule_declarations</title>
<polygon fill="none" stroke="#000000" points="1820,-78 1820,-130 4163,-130 4163,-78 1820,-78"/>
</g>
<g id="clust17" class="cluster">
<title>cluster_RemisionModule_imports</title>
<polygon fill="none" stroke="#000000" points="1638,-78 1638,-130 1812,-130 1812,-78 1638,-78"/>
</g>
<g id="clust20" class="cluster">
<title>cluster_RemisionModule_providers</title>
<polygon fill="none" stroke="#000000" points="16,-78 16,-130 1630,-130 1630,-78 16,-78"/>
</g>
<!-- RemisionContenedorComponent -->
<g id="node1" class="node">
<title>RemisionContenedorComponent</title>
<polygon fill="#ffffb3" stroke="#000000" points="4155.3173,-122 3954.6827,-122 3954.6827,-86 4155.3173,-86 4155.3173,-122"/>
<text text-anchor="middle" x="4055" y="-99.8" font-family="Times,serif" font-size="14.00" fill="#000000">RemisionContenedorComponent</text>
</g>
<!-- RemisionModule -->
<g id="node15" class="node">
<title>RemisionModule</title>
<polygon fill="#8dd3c7" stroke="#000000" points="2229.7176,-187 2226.7176,-191 2205.7176,-191 2202.7176,-187 2116.2824,-187 2116.2824,-151 2229.7176,-151 2229.7176,-187"/>
<text text-anchor="middle" x="2173" y="-164.8" font-family="Times,serif" font-size="14.00" fill="#000000">RemisionModule</text>
</g>
<!-- RemisionContenedorComponent&#45;&gt;RemisionModule -->
<g id="edge1" class="edge">
<title>RemisionContenedorComponent&#45;&gt;RemisionModule</title>
<path fill="none" stroke="#000000" d="M4055,-122.1532C4055,-145.7566 4055,-184 4055,-184 4055,-184 2239.8373,-184 2239.8373,-184"/>
<polygon fill="#000000" stroke="#000000" points="2239.8373,-180.5001 2229.8373,-184 2239.8372,-187.5001 2239.8373,-180.5001"/>
</g>
<!-- DatosPacienteComponent -->
<g id="node2" class="node">
<title>DatosPacienteComponent</title>
<polygon fill="#ffffb3" stroke="#000000" points="3936.9115,-122 3775.0885,-122 3775.0885,-86 3936.9115,-86 3936.9115,-122"/>
<text text-anchor="middle" x="3856" y="-99.8" font-family="Times,serif" font-size="14.00" fill="#000000">DatosPacienteComponent</text>
</g>
<!-- DatosPacienteComponent&#45;&gt;RemisionModule -->
<g id="edge2" class="edge">
<title>DatosPacienteComponent&#45;&gt;RemisionModule</title>
<path fill="none" stroke="#000000" d="M3856,-122.0908C3856,-145.1328 3856,-182 3856,-182 3856,-182 2239.9608,-182 2239.9608,-182"/>
<polygon fill="#000000" stroke="#000000" points="2239.9608,-178.5001 2229.9608,-182 2239.9608,-185.5001 2239.9608,-178.5001"/>
</g>
<!-- DatosAtencionComponent -->
<g id="node3" class="node">
<title>DatosAtencionComponent</title>
<polygon fill="#ffffb3" stroke="#000000" points="3757.8061,-122 3592.1939,-122 3592.1939,-86 3757.8061,-86 3757.8061,-122"/>
<text text-anchor="middle" x="3675" y="-99.8" font-family="Times,serif" font-size="14.00" fill="#000000">DatosAtencionComponent</text>
</g>
<!-- DatosAtencionComponent&#45;&gt;RemisionModule -->
<g id="edge3" class="edge">
<title>DatosAtencionComponent&#45;&gt;RemisionModule</title>
<path fill="none" stroke="#000000" d="M3675,-122.2921C3675,-144.2057 3675,-178 3675,-178 3675,-178 2240.0461,-178 2240.0461,-178"/>
<polygon fill="#000000" stroke="#000000" points="2240.0461,-174.5001 2230.0461,-178 2240.046,-181.5001 2240.0461,-174.5001"/>
</g>
<!-- DiagnosticosComponent -->
<g id="node4" class="node">
<title>DiagnosticosComponent</title>
<polygon fill="#ffffb3" stroke="#000000" points="3574.4298,-122 3419.5702,-122 3419.5702,-86 3574.4298,-86 3574.4298,-122"/>
<text text-anchor="middle" x="3497" y="-99.8" font-family="Times,serif" font-size="14.00" fill="#000000">DiagnosticosComponent</text>
</g>
<!-- DiagnosticosComponent&#45;&gt;RemisionModule -->
<g id="edge4" class="edge">
<title>DiagnosticosComponent&#45;&gt;RemisionModule</title>
<path fill="none" stroke="#000000" d="M3497,-122.2843C3497,-143.3211 3497,-175 3497,-175 3497,-175 2239.8906,-175 2239.8906,-175"/>
<polygon fill="#000000" stroke="#000000" points="2239.8907,-171.5001 2229.8906,-175 2239.8906,-178.5001 2239.8907,-171.5001"/>
</g>
<!-- PlanManejoComponent -->
<g id="node5" class="node">
<title>PlanManejoComponent</title>
<polygon fill="#ffffb3" stroke="#000000" points="3401.4846,-122 3252.5154,-122 3252.5154,-86 3401.4846,-86 3401.4846,-122"/>
<text text-anchor="middle" x="3327" y="-99.8" font-family="Times,serif" font-size="14.00" fill="#000000">PlanManejoComponent</text>
</g>
<!-- PlanManejoComponent&#45;&gt;RemisionModule -->
<g id="edge5" class="edge">
<title>PlanManejoComponent&#45;&gt;RemisionModule</title>
<path fill="none" stroke="#000000" d="M3327,-122.2228C3327,-142.3652 3327,-172 3327,-172 3327,-172 2239.8334,-172 2239.8334,-172"/>
<polygon fill="#000000" stroke="#000000" points="2239.8335,-168.5001 2229.8334,-172 2239.8334,-175.5001 2239.8335,-168.5001"/>
</g>
<!-- AdmisionComponent -->
<g id="node6" class="node">
<title>AdmisionComponent</title>
<polygon fill="#ffffb3" stroke="#000000" points="3234.0561,-122 3097.9439,-122 3097.9439,-86 3234.0561,-86 3234.0561,-122"/>
<text text-anchor="middle" x="3166" y="-99.8" font-family="Times,serif" font-size="14.00" fill="#000000">AdmisionComponent</text>
</g>
<!-- AdmisionComponent&#45;&gt;RemisionModule -->
<g id="edge6" class="edge">
<title>AdmisionComponent&#45;&gt;RemisionModule</title>
<path fill="none" stroke="#000000" d="M3166,-122.1061C3166,-141.3391 3166,-169 3166,-169 3166,-169 2239.9545,-169 2239.9545,-169"/>
<polygon fill="#000000" stroke="#000000" points="2239.9546,-165.5001 2229.9545,-169 2239.9545,-172.5001 2239.9546,-165.5001"/>
</g>
<!-- DatosRemisionComponent -->
<g id="node7" class="node">
<title>DatosRemisionComponent</title>
<polygon fill="#ffffb3" stroke="#000000" points="3079.6568,-122 2912.3432,-122 2912.3432,-86 3079.6568,-86 3079.6568,-122"/>
<text text-anchor="middle" x="2996" y="-99.8" font-family="Times,serif" font-size="14.00" fill="#000000">DatosRemisionComponent</text>
</g>
<!-- DatosRemisionComponent&#45;&gt;RemisionModule -->
<g id="edge7" class="edge">
<title>DatosRemisionComponent&#45;&gt;RemisionModule</title>
<path fill="none" stroke="#000000" d="M2996,-122.2222C2996,-140.8285 2996,-167 2996,-167 2996,-167 2239.8928,-167 2239.8928,-167"/>
<polygon fill="#000000" stroke="#000000" points="2239.8929,-163.5001 2229.8928,-167 2239.8928,-170.5001 2239.8929,-163.5001"/>
</g>
<!-- ModalCondicionPacienteAceptaComponent -->
<g id="node8" class="node">
<title>ModalCondicionPacienteAceptaComponent</title>
<polygon fill="#ffffb3" stroke="#000000" points="2894.7779,-122 2631.2221,-122 2631.2221,-86 2894.7779,-86 2894.7779,-122"/>
<text text-anchor="middle" x="2763" y="-99.8" font-family="Times,serif" font-size="14.00" fill="#000000">ModalCondicionPacienteAceptaComponent</text>
</g>
<!-- ModalCondicionPacienteAceptaComponent&#45;&gt;RemisionModule -->
<g id="edge8" class="edge">
<title>ModalCondicionPacienteAceptaComponent&#45;&gt;RemisionModule</title>
<path fill="none" stroke="#000000" d="M2763,-122.0225C2763,-139.3734 2763,-163 2763,-163 2763,-163 2239.8395,-163 2239.8395,-163"/>
<polygon fill="#000000" stroke="#000000" points="2239.8395,-159.5001 2229.8395,-163 2239.8394,-166.5001 2239.8395,-159.5001"/>
</g>
<!-- ModalComponent -->
<g id="node9" class="node">
<title>ModalComponent</title>
<polygon fill="#ffffb3" stroke="#000000" points="2612.8823,-122 2495.1177,-122 2495.1177,-86 2612.8823,-86 2612.8823,-122"/>
<text text-anchor="middle" x="2554" y="-99.8" font-family="Times,serif" font-size="14.00" fill="#000000">ModalComponent</text>
</g>
<!-- ModalComponent&#45;&gt;RemisionModule -->
<g id="edge9" class="edge">
<title>ModalComponent&#45;&gt;RemisionModule</title>
<path fill="none" stroke="#000000" d="M2554,-122.027C2554,-138.3976 2554,-160 2554,-160 2554,-160 2239.6281,-160 2239.6281,-160"/>
<polygon fill="#000000" stroke="#000000" points="2239.6282,-156.5001 2229.6281,-160 2239.6281,-163.5001 2239.6282,-156.5001"/>
</g>
<!-- FechaPipe -->
<g id="node10" class="node">
<title>FechaPipe</title>
<polygon fill="#ffffb3" stroke="#000000" points="2477.3149,-122 2402.6851,-122 2402.6851,-86 2477.3149,-86 2477.3149,-122"/>
<text text-anchor="middle" x="2440" y="-99.8" font-family="Times,serif" font-size="14.00" fill="#000000">FechaPipe</text>
</g>
<!-- FechaPipe&#45;&gt;RemisionModule -->
<g id="edge10" class="edge">
<title>FechaPipe&#45;&gt;RemisionModule</title>
<path fill="none" stroke="#000000" d="M2440,-122.2396C2440,-137.5706 2440,-157 2440,-157 2440,-157 2239.6238,-157 2239.6238,-157"/>
<polygon fill="#000000" stroke="#000000" points="2239.6239,-153.5001 2229.6238,-157 2239.6238,-160.5001 2239.6239,-153.5001"/>
</g>
<!-- TextoBooleanoPipe -->
<g id="node11" class="node">
<title>TextoBooleanoPipe</title>
<polygon fill="#ffffb3" stroke="#000000" points="2384.7022,-122 2257.2978,-122 2257.2978,-86 2384.7022,-86 2384.7022,-122"/>
<text text-anchor="middle" x="2321" y="-99.8" font-family="Times,serif" font-size="14.00" fill="#000000">TextoBooleanoPipe</text>
</g>
<!-- TextoBooleanoPipe&#45;&gt;RemisionModule -->
<g id="edge11" class="edge">
<title>TextoBooleanoPipe&#45;&gt;RemisionModule</title>
<path fill="none" stroke="#000000" d="M2321,-122.0511C2321,-136.373 2321,-154 2321,-154 2321,-154 2239.7974,-154 2239.7974,-154"/>
<polygon fill="#000000" stroke="#000000" points="2239.7974,-150.5001 2229.7974,-154 2239.7974,-157.5001 2239.7974,-150.5001"/>
</g>
<!-- AccionesComponent -->
<g id="node12" class="node">
<title>AccionesComponent</title>
<polygon fill="#ffffb3" stroke="#000000" points="2239.9187,-122 2106.0813,-122 2106.0813,-86 2239.9187,-86 2239.9187,-122"/>
<text text-anchor="middle" x="2173" y="-99.8" font-family="Times,serif" font-size="14.00" fill="#000000">AccionesComponent</text>
</g>
<!-- AccionesComponent&#45;&gt;RemisionModule -->
<g id="edge12" class="edge">
<title>AccionesComponent&#45;&gt;RemisionModule</title>
<path fill="none" stroke="#000000" d="M2173,-122.1061C2173,-122.1061 2173,-140.991 2173,-140.991"/>
<polygon fill="#000000" stroke="#000000" points="2169.5001,-140.9909 2173,-150.991 2176.5001,-140.991 2169.5001,-140.9909"/>
</g>
<!-- ModalDireccionComponent -->
<g id="node13" class="node">
<title>ModalDireccionComponent</title>
<polygon fill="#ffffb3" stroke="#000000" points="2088.5744,-122 1915.4256,-122 1915.4256,-86 2088.5744,-86 2088.5744,-122"/>
<text text-anchor="middle" x="2002" y="-99.8" font-family="Times,serif" font-size="14.00" fill="#000000">ModalDireccionComponent</text>
</g>
<!-- ModalDireccionComponent&#45;&gt;RemisionModule -->
<g id="edge13" class="edge">
<title>ModalDireccionComponent&#45;&gt;RemisionModule</title>
<path fill="none" stroke="#000000" d="M2002,-122.0511C2002,-136.373 2002,-154 2002,-154 2002,-154 2106.0595,-154 2106.0595,-154"/>
<polygon fill="#000000" stroke="#000000" points="2106.0595,-157.5001 2116.0595,-154 2106.0594,-150.5001 2106.0595,-157.5001"/>
</g>
<!-- EdadPipe -->
<g id="node14" class="node">
<title>EdadPipe</title>
<polygon fill="#ffffb3" stroke="#000000" points="1897.6559,-122 1828.3441,-122 1828.3441,-86 1897.6559,-86 1897.6559,-122"/>
<text text-anchor="middle" x="1863" y="-99.8" font-family="Times,serif" font-size="14.00" fill="#000000">EdadPipe</text>
</g>
<!-- EdadPipe&#45;&gt;RemisionModule -->
<g id="edge14" class="edge">
<title>EdadPipe&#45;&gt;RemisionModule</title>
<path fill="none" stroke="#000000" d="M1863,-122.2396C1863,-137.5706 1863,-157 1863,-157 1863,-157 2106.1412,-157 2106.1412,-157"/>
<polygon fill="#000000" stroke="#000000" points="2106.1413,-160.5001 2116.1412,-157 2106.1412,-153.5001 2106.1413,-160.5001"/>
</g>
<!-- RemisionRoutingModule -->
<g id="node16" class="node">
<title>RemisionRoutingModule</title>
<polygon fill="#8dd3c7" stroke="#000000" points="1804.3356,-122 1801.3356,-126 1780.3356,-126 1777.3356,-122 1645.6644,-122 1645.6644,-86 1804.3356,-86 1804.3356,-122"/>
<text text-anchor="middle" x="1725" y="-99.8" font-family="Times,serif" font-size="14.00" fill="#000000">RemisionRoutingModule</text>
</g>
<!-- RemisionRoutingModule&#45;&gt;RemisionModule -->
<g id="edge15" class="edge">
<title>RemisionRoutingModule&#45;&gt;RemisionModule</title>
<path fill="none" stroke="#000000" d="M1725,-122.027C1725,-138.3976 1725,-160 1725,-160 1725,-160 2106.2605,-160 2106.2605,-160"/>
<polygon fill="#000000" stroke="#000000" points="2106.2605,-163.5001 2116.2605,-160 2106.2605,-156.5001 2106.2605,-163.5001"/>
</g>
<!-- RemisionContenedorService -->
<g id="node17" class="node">
<title>RemisionContenedorService</title>
<ellipse fill="#fdb462" stroke="#000000" cx="1500" cy="-104" rx="122.1306" ry="18"/>
<text text-anchor="middle" x="1500" y="-99.8" font-family="Times,serif" font-size="14.00" fill="#000000">RemisionContenedorService</text>
</g>
<!-- RemisionContenedorService&#45;&gt;RemisionModule -->
<g id="edge16" class="edge">
<title>RemisionContenedorService&#45;&gt;RemisionModule</title>
<path fill="none" stroke="#000000" d="M1500,-122.0225C1500,-139.3734 1500,-163 1500,-163 1500,-163 2106.2004,-163 2106.2004,-163"/>
<polygon fill="#000000" stroke="#000000" points="2106.2004,-166.5001 2116.2004,-163 2106.2004,-159.5001 2106.2004,-166.5001"/>
</g>
<!-- DatosRemisionService -->
<g id="node18" class="node">
<title>DatosRemisionService</title>
<ellipse fill="#fdb462" stroke="#000000" cx="1260" cy="-104" rx="99.5732" ry="18"/>
<text text-anchor="middle" x="1260" y="-99.8" font-family="Times,serif" font-size="14.00" fill="#000000">DatosRemisionService</text>
</g>
<!-- DatosRemisionService&#45;&gt;RemisionModule -->
<g id="edge17" class="edge">
<title>DatosRemisionService&#45;&gt;RemisionModule</title>
<path fill="none" stroke="#000000" d="M1260,-122.2222C1260,-140.8285 1260,-167 1260,-167 1260,-167 2106.2327,-167 2106.2327,-167"/>
<polygon fill="#000000" stroke="#000000" points="2106.2328,-170.5001 2116.2327,-167 2106.2327,-163.5001 2106.2328,-170.5001"/>
</g>
<!-- DatosPacienteService -->
<g id="node19" class="node">
<title>DatosPacienteService</title>
<ellipse fill="#fdb462" stroke="#000000" cx="1047" cy="-104" rx="95.4578" ry="18"/>
<text text-anchor="middle" x="1047" y="-99.8" font-family="Times,serif" font-size="14.00" fill="#000000">DatosPacienteService</text>
</g>
<!-- DatosPacienteService&#45;&gt;RemisionModule -->
<g id="edge18" class="edge">
<title>DatosPacienteService&#45;&gt;RemisionModule</title>
<path fill="none" stroke="#000000" d="M1047,-122.1061C1047,-141.3391 1047,-169 1047,-169 1047,-169 2106.3898,-169 2106.3898,-169"/>
<polygon fill="#000000" stroke="#000000" points="2106.3899,-172.5001 2116.3898,-169 2106.3898,-165.5001 2106.3899,-172.5001"/>
</g>
<!-- DatosAtencionService -->
<g id="node20" class="node">
<title>DatosAtencionService</title>
<ellipse fill="#fdb462" stroke="#000000" cx="836" cy="-104" rx="97.8305" ry="18"/>
<text text-anchor="middle" x="836" y="-99.8" font-family="Times,serif" font-size="14.00" fill="#000000">DatosAtencionService</text>
</g>
<!-- DatosAtencionService&#45;&gt;RemisionModule -->
<g id="edge19" class="edge">
<title>DatosAtencionService&#45;&gt;RemisionModule</title>
<path fill="none" stroke="#000000" d="M836,-122.2228C836,-142.3652 836,-172 836,-172 836,-172 2105.9785,-172 2105.9785,-172"/>
<polygon fill="#000000" stroke="#000000" points="2105.9785,-175.5001 2115.9785,-172 2105.9784,-168.5001 2105.9785,-175.5001"/>
</g>
<!-- DiagnosticosService -->
<g id="node21" class="node">
<title>DiagnosticosService</title>
<ellipse fill="#fdb462" stroke="#000000" cx="630" cy="-104" rx="90.3255" ry="18"/>
<text text-anchor="middle" x="630" y="-99.8" font-family="Times,serif" font-size="14.00" fill="#000000">DiagnosticosService</text>
</g>
<!-- DiagnosticosService&#45;&gt;RemisionModule -->
<g id="edge20" class="edge">
<title>DiagnosticosService&#45;&gt;RemisionModule</title>
<path fill="none" stroke="#000000" d="M630,-122.2843C630,-143.3211 630,-175 630,-175 630,-175 2106.2539,-175 2106.2539,-175"/>
<polygon fill="#000000" stroke="#000000" points="2106.2539,-178.5001 2116.2539,-175 2106.2538,-171.5001 2106.2539,-178.5001"/>
</g>
<!-- MensajesService -->
<g id="node22" class="node">
<title>MensajesService</title>
<ellipse fill="#fdb462" stroke="#000000" cx="445" cy="-104" rx="76.4188" ry="18"/>
<text text-anchor="middle" x="445" y="-99.8" font-family="Times,serif" font-size="14.00" fill="#000000">MensajesService</text>
</g>
<!-- MensajesService&#45;&gt;RemisionModule -->
<g id="edge21" class="edge">
<title>MensajesService&#45;&gt;RemisionModule</title>
<path fill="none" stroke="#000000" d="M445,-122.2921C445,-144.2057 445,-178 445,-178 445,-178 2105.9985,-178 2105.9985,-178"/>
<polygon fill="#000000" stroke="#000000" points="2105.9986,-181.5001 2115.9985,-178 2105.9985,-174.5001 2105.9986,-181.5001"/>
</g>
<!-- AdmisionService -->
<g id="node23" class="node">
<title>AdmisionService</title>
<ellipse fill="#fdb462" stroke="#000000" cx="272" cy="-104" rx="78.1675" ry="18"/>
<text text-anchor="middle" x="272" y="-99.8" font-family="Times,serif" font-size="14.00" fill="#000000">AdmisionService</text>
</g>
<!-- AdmisionService&#45;&gt;RemisionModule -->
<g id="edge22" class="edge">
<title>AdmisionService&#45;&gt;RemisionModule</title>
<path fill="none" stroke="#000000" d="M272,-122.0908C272,-145.1328 272,-182 272,-182 272,-182 2106.365,-182 2106.365,-182"/>
<polygon fill="#000000" stroke="#000000" points="2106.365,-185.5001 2116.365,-182 2106.365,-178.5001 2106.365,-185.5001"/>
</g>
<!-- AccionesService -->
<g id="node24" class="node">
<title>AccionesService</title>
<ellipse fill="#fdb462" stroke="#000000" cx="100" cy="-104" rx="75.8393" ry="18"/>
<text text-anchor="middle" x="100" y="-99.8" font-family="Times,serif" font-size="14.00" fill="#000000">AccionesService</text>
</g>
<!-- AccionesService&#45;&gt;RemisionModule -->
<g id="edge23" class="edge">
<title>AccionesService&#45;&gt;RemisionModule</title>
<path fill="none" stroke="#000000" d="M100,-122.1532C100,-145.7566 100,-184 100,-184 100,-184 2106.2069,-184 2106.2069,-184"/>
<polygon fill="#000000" stroke="#000000" points="2106.2069,-187.5001 2116.2069,-184 2106.2068,-180.5001 2106.2069,-187.5001"/>
</g>
</g>
</svg>
