<?xml version="1.0" encoding="UTF-8" standalone="no"?>
<!DOCTYPE svg PUBLIC "-//W3C//DTD SVG 1.1//EN"
 "http://www.w3.org/Graphics/SVG/1.1/DTD/svg11.dtd">
<!-- Generated by graphviz version 2.40.1 (20161225.0304)
 -->
<!-- Title: dependencies Pages: 1 -->
<svg width="1043pt" height="284pt"
 viewBox="0.00 0.00 1043.00 284.00" xmlns="http://www.w3.org/2000/svg" xmlns:xlink="http://www.w3.org/1999/xlink">
<g id="graph0" class="graph" transform="scale(1 1) rotate(0) translate(4 280)">
<title>dependencies</title>
<polygon fill="#ffffff" stroke="transparent" points="-4,4 -4,-280 1039,-280 1039,4 -4,4"/>
<text text-anchor="start" x="496.5091" y="-42.4" font-family="sans-serif" font-weight="bold" font-size="14.00" fill="#000000">Legend</text>
<polygon fill="#ffffb3" stroke="transparent" points="283.5,-10 283.5,-30 303.5,-30 303.5,-10 283.5,-10"/>
<text text-anchor="start" x="307.129" y="-15.4" font-family="sans-serif" font-size="14.00" fill="#000000"> &#160;Declarations</text>
<polygon fill="#8dd3c7" stroke="transparent" points="396.5,-10 396.5,-30 416.5,-30 416.5,-10 396.5,-10"/>
<text text-anchor="start" x="420.2251" y="-15.4" font-family="sans-serif" font-size="14.00" fill="#000000"> &#160;Module</text>
<polygon fill="#80b1d3" stroke="transparent" points="482.5,-10 482.5,-30 502.5,-30 502.5,-10 482.5,-10"/>
<text text-anchor="start" x="506.2812" y="-15.4" font-family="sans-serif" font-size="14.00" fill="#000000"> &#160;Bootstrap</text>
<polygon fill="#fdb462" stroke="transparent" points="579.5,-10 579.5,-30 599.5,-30 599.5,-10 579.5,-10"/>
<text text-anchor="start" x="603.1732" y="-15.4" font-family="sans-serif" font-size="14.00" fill="#000000"> &#160;Providers</text>
<polygon fill="#fb8072" stroke="transparent" points="675.5,-10 675.5,-30 695.5,-30 695.5,-10 675.5,-10"/>
<text text-anchor="start" x="699.2258" y="-15.4" font-family="sans-serif" font-size="14.00" fill="#000000"> &#160;Exports</text>
<g id="clust1" class="cluster">
<title>cluster_AppModule</title>
<polygon fill="none" stroke="#000000" stroke-dasharray="1,5" points="8,-70 8,-268 1027,-268 1027,-70 8,-70"/>
</g>
<g id="clust2" class="cluster">
<title>cluster_AppModule_declarations</title>
<polygon fill="none" stroke="#000000" points="743,-78 743,-130 1019,-130 1019,-78 743,-78"/>
</g>
<g id="clust5" class="cluster">
<title>cluster_AppModule_imports</title>
<polygon fill="none" stroke="#000000" points="415,-78 415,-130 735,-130 735,-78 415,-78"/>
</g>
<g id="clust6" class="cluster">
<title>cluster_AppModule_exports</title>
<polygon fill="none" stroke="#000000" points="452,-208 452,-260 608,-260 608,-208 452,-208"/>
</g>
<g id="clust7" class="cluster">
<title>cluster_AppModule_bootstrap</title>
<polygon fill="none" stroke="#000000" points="616,-208 616,-260 740,-260 740,-208 616,-208"/>
</g>
<g id="clust8" class="cluster">
<title>cluster_AppModule_providers</title>
<polygon fill="none" stroke="#000000" points="16,-78 16,-130 407,-130 407,-78 16,-78"/>
</g>
<!-- AppComponent -->
<g id="node1" class="node">
<title>AppComponent</title>
<polygon fill="#ffffb3" stroke="#000000" points="1010.9399,-122 905.0601,-122 905.0601,-86 1010.9399,-86 1010.9399,-122"/>
<text text-anchor="middle" x="958" y="-99.8" font-family="Times,serif" font-size="14.00" fill="#000000">AppComponent</text>
</g>
<!-- AppModule -->
<g id="node3" class="node">
<title>AppModule</title>
<polygon fill="#8dd3c7" stroke="#000000" points="645.6571,-187 642.6571,-191 621.6571,-191 618.6571,-187 562.3429,-187 562.3429,-151 645.6571,-151 645.6571,-187"/>
<text text-anchor="middle" x="604" y="-164.8" font-family="Times,serif" font-size="14.00" fill="#000000">AppModule</text>
</g>
<!-- AppComponent&#45;&gt;AppModule -->
<g id="edge1" class="edge">
<title>AppComponent&#45;&gt;AppModule</title>
<path fill="none" stroke="#000000" d="M958,-122.2921C958,-144.2057 958,-178 958,-178 958,-178 655.9986,-178 655.9986,-178"/>
<polygon fill="#000000" stroke="#000000" points="655.9986,-174.5001 645.9986,-178 655.9985,-181.5001 655.9986,-174.5001"/>
</g>
<!-- CargandoComponent -->
<g id="node2" class="node">
<title>CargandoComponent</title>
<polygon fill="#ffffb3" stroke="#000000" points="886.759,-122 751.241,-122 751.241,-86 886.759,-86 886.759,-122"/>
<text text-anchor="middle" x="819" y="-99.8" font-family="Times,serif" font-size="14.00" fill="#000000">CargandoComponent</text>
</g>
<!-- CargandoComponent&#45;&gt;AppModule -->
<g id="edge2" class="edge">
<title>CargandoComponent&#45;&gt;AppModule</title>
<path fill="none" stroke="#000000" d="M819,-122.1061C819,-141.3391 819,-169 819,-169 819,-169 655.7091,-169 655.7091,-169"/>
<polygon fill="#000000" stroke="#000000" points="655.7091,-165.5001 645.7091,-169 655.7091,-172.5001 655.7091,-165.5001"/>
</g>
<!-- CargandoComponent  -->
<g id="node7" class="node">
<title>CargandoComponent </title>
<polygon fill="#fb8072" stroke="#000000" points="599.759,-252 460.241,-252 460.241,-216 599.759,-216 599.759,-252"/>
<text text-anchor="middle" x="530" y="-229.8" font-family="Times,serif" font-size="14.00" fill="#000000">CargandoComponent </text>
</g>
<!-- AppModule&#45;&gt;CargandoComponent  -->
<g id="edge6" class="edge">
<title>AppModule&#45;&gt;CargandoComponent </title>
<path fill="none" stroke="#000000" stroke-dasharray="5,2" d="M580.9006,-187.1061C580.9006,-187.1061 580.9006,-205.991 580.9006,-205.991"/>
<polygon fill="#000000" stroke="#000000" points="577.4007,-205.9909 580.9006,-215.991 584.4007,-205.991 577.4007,-205.9909"/>
</g>
<!-- AppComponent  -->
<g id="node8" class="node">
<title>AppComponent </title>
<polygon fill="#80b1d3" stroke="#000000" points="732.439,-252 623.561,-252 623.561,-216 732.439,-216 732.439,-252"/>
<text text-anchor="middle" x="678" y="-229.8" font-family="Times,serif" font-size="14.00" fill="#000000">AppComponent </text>
</g>
<!-- AppModule&#45;&gt;AppComponent  -->
<g id="edge7" class="edge">
<title>AppModule&#45;&gt;AppComponent </title>
<path fill="none" stroke="#000000" stroke-dasharray="1,5" d="M634.6794,-187.1061C634.6794,-187.1061 634.6794,-205.991 634.6794,-205.991"/>
<polygon fill="#000000" stroke="#000000" points="631.1794,-205.9909 634.6794,-215.991 638.1794,-205.991 631.1794,-205.9909"/>
</g>
<!-- routing -->
<g id="node4" class="node">
<title>routing</title>
<polygon fill="#8dd3c7" stroke="#000000" points="727.4435,-122 724.4435,-126 703.4435,-126 700.4435,-122 670.5565,-122 670.5565,-86 727.4435,-86 727.4435,-122"/>
<text text-anchor="middle" x="699" y="-99.8" font-family="Times,serif" font-size="14.00" fill="#000000">routing</text>
</g>
<!-- routing&#45;&gt;AppModule -->
<g id="edge3" class="edge">
<title>routing&#45;&gt;AppModule</title>
<path fill="none" stroke="#000000" d="M699,-122.027C699,-138.3976 699,-160 699,-160 699,-160 655.6684,-160 655.6684,-160"/>
<polygon fill="#000000" stroke="#000000" points="655.6684,-156.5001 645.6684,-160 655.6683,-163.5001 655.6684,-156.5001"/>
</g>
<!-- SharedModule -->
<g id="node5" class="node">
<title>SharedModule</title>
<polygon fill="#8dd3c7" stroke="#000000" points="653.4231,-122 650.4231,-126 629.4231,-126 626.4231,-122 554.5769,-122 554.5769,-86 653.4231,-86 653.4231,-122"/>
<text text-anchor="middle" x="604" y="-99.8" font-family="Times,serif" font-size="14.00" fill="#000000">SharedModule</text>
</g>
<!-- SharedModule&#45;&gt;AppModule -->
<g id="edge4" class="edge">
<title>SharedModule&#45;&gt;AppModule</title>
<path fill="none" stroke="#000000" d="M604,-122.1061C604,-122.1061 604,-140.991 604,-140.991"/>
<polygon fill="#000000" stroke="#000000" points="600.5001,-140.9909 604,-150.991 607.5001,-140.991 600.5001,-140.9909"/>
</g>
<!-- RemisionModule -->
<g id="node6" class="node">
<title>RemisionModule</title>
<polygon fill="#8dd3c7" stroke="#000000" points="536.7176,-122 533.7176,-126 512.7176,-126 509.7176,-122 423.2824,-122 423.2824,-86 536.7176,-86 536.7176,-122"/>
<text text-anchor="middle" x="480" y="-99.8" font-family="Times,serif" font-size="14.00" fill="#000000">RemisionModule</text>
</g>
<!-- RemisionModule&#45;&gt;AppModule -->
<g id="edge5" class="edge">
<title>RemisionModule&#45;&gt;AppModule</title>
<path fill="none" stroke="#000000" d="M498.4897,-122.027C498.4897,-138.3976 498.4897,-160 498.4897,-160 498.4897,-160 552.2995,-160 552.2995,-160"/>
<polygon fill="#000000" stroke="#000000" points="552.2996,-163.5001 562.2995,-160 552.2995,-156.5001 552.2996,-163.5001"/>
</g>
<!-- CustomHttpInterceptor -->
<g id="node9" class="node">
<title>CustomHttpInterceptor</title>
<ellipse fill="#fdb462" stroke="#000000" cx="298" cy="-104" rx="100.7191" ry="18"/>
<text text-anchor="middle" x="298" y="-99.8" font-family="Times,serif" font-size="14.00" fill="#000000">CustomHttpInterceptor</text>
</g>
<!-- CustomHttpInterceptor&#45;&gt;AppModule -->
<g id="edge8" class="edge">
<title>CustomHttpInterceptor&#45;&gt;AppModule</title>
<path fill="none" stroke="#000000" d="M298,-122.1061C298,-141.3391 298,-169 298,-169 298,-169 552.0936,-169 552.0936,-169"/>
<polygon fill="#000000" stroke="#000000" points="552.0937,-172.5001 562.0936,-169 552.0936,-165.5001 552.0937,-172.5001"/>
</g>
<!-- CargandoService -->
<g id="node10" class="node">
<title>CargandoService</title>
<ellipse fill="#fdb462" stroke="#000000" cx="102" cy="-104" rx="77.5685" ry="18"/>
<text text-anchor="middle" x="102" y="-99.8" font-family="Times,serif" font-size="14.00" fill="#000000">CargandoService</text>
</g>
<!-- CargandoService&#45;&gt;AppModule -->
<g id="edge9" class="edge">
<title>CargandoService&#45;&gt;AppModule</title>
<path fill="none" stroke="#000000" d="M102,-122.2921C102,-144.2057 102,-178 102,-178 102,-178 552.0632,-178 552.0632,-178"/>
<polygon fill="#000000" stroke="#000000" points="552.0632,-181.5001 562.0632,-178 552.0632,-174.5001 552.0632,-181.5001"/>
</g>
</g>
</svg>
