<?xml version="1.0" encoding="UTF-8" standalone="no"?>
<!DOCTYPE svg PUBLIC "-//W3C//DTD SVG 1.1//EN"
 "http://www.w3.org/Graphics/SVG/1.1/DTD/svg11.dtd">
<!-- Generated by graphviz version 2.40.1 (20161225.0304)
 -->
<!-- Title: dependencies Pages: 1 -->
<svg width="5638pt" height="360pt"
 viewBox="0.00 0.00 5638.00 360.00" xmlns="http://www.w3.org/2000/svg" xmlns:xlink="http://www.w3.org/1999/xlink">
<g id="graph0" class="graph" transform="scale(1 1) rotate(0) translate(4 356)">
<title>dependencies</title>
<polygon fill="#ffffff" stroke="transparent" points="-4,4 -4,-356 5634,-356 5634,4 -4,4"/>
<text text-anchor="start" x="2794.0091" y="-42.4" font-family="sans-serif" font-weight="bold" font-size="14.00" fill="#000000">Legend</text>
<polygon fill="#ffffb3" stroke="transparent" points="2581,-10 2581,-30 2601,-30 2601,-10 2581,-10"/>
<text text-anchor="start" x="2604.629" y="-15.4" font-family="sans-serif" font-size="14.00" fill="#000000"> &#160;Declarations</text>
<polygon fill="#8dd3c7" stroke="transparent" points="2694,-10 2694,-30 2714,-30 2714,-10 2694,-10"/>
<text text-anchor="start" x="2717.7251" y="-15.4" font-family="sans-serif" font-size="14.00" fill="#000000"> &#160;Module</text>
<polygon fill="#80b1d3" stroke="transparent" points="2780,-10 2780,-30 2800,-30 2800,-10 2780,-10"/>
<text text-anchor="start" x="2803.7812" y="-15.4" font-family="sans-serif" font-size="14.00" fill="#000000"> &#160;Bootstrap</text>
<polygon fill="#fdb462" stroke="transparent" points="2877,-10 2877,-30 2897,-30 2897,-10 2877,-10"/>
<text text-anchor="start" x="2900.6732" y="-15.4" font-family="sans-serif" font-size="14.00" fill="#000000"> &#160;Providers</text>
<polygon fill="#fb8072" stroke="transparent" points="2973,-10 2973,-30 2993,-30 2993,-10 2973,-10"/>
<text text-anchor="start" x="2996.7258" y="-15.4" font-family="sans-serif" font-size="14.00" fill="#000000"> &#160;Exports</text>
<g id="clust1" class="cluster">
<title>cluster_AppModule</title>
<polygon fill="none" stroke="#000000" stroke-dasharray="1,5" points="2243,-146 2243,-344 3262,-344 3262,-146 2243,-146"/>
</g>
<g id="clust2" class="cluster">
<title>cluster_AppModule_declarations</title>
<polygon fill="none" stroke="#000000" points="2978,-154 2978,-206 3254,-206 3254,-154 2978,-154"/>
</g>
<g id="clust5" class="cluster">
<title>cluster_AppModule_imports</title>
<polygon fill="none" stroke="#000000" points="2650,-154 2650,-206 2970,-206 2970,-154 2650,-154"/>
</g>
<g id="clust6" class="cluster">
<title>cluster_AppModule_exports</title>
<polygon fill="none" stroke="#000000" points="2679,-284 2679,-336 2835,-336 2835,-284 2679,-284"/>
</g>
<g id="clust7" class="cluster">
<title>cluster_AppModule_bootstrap</title>
<polygon fill="none" stroke="#000000" points="2843,-284 2843,-336 2967,-336 2967,-284 2843,-284"/>
</g>
<g id="clust8" class="cluster">
<title>cluster_AppModule_providers</title>
<polygon fill="none" stroke="#000000" points="2251,-154 2251,-206 2642,-206 2642,-154 2251,-154"/>
</g>
<g id="clust9" class="cluster">
<title>cluster_RemisionModule</title>
<polygon fill="none" stroke="#000000" stroke-dasharray="1,5" points="1459,-70 1459,-138 5622,-138 5622,-70 1459,-70"/>
</g>
<g id="clust10" class="cluster">
<title>cluster_RemisionModule_declarations</title>
<polygon fill="none" stroke="#000000" points="3271,-78 3271,-130 5614,-130 5614,-78 3271,-78"/>
</g>
<g id="clust25" class="cluster">
<title>cluster_RemisionModule_imports</title>
<polygon fill="none" stroke="#000000" points="3089,-78 3089,-130 3263,-130 3263,-78 3089,-78"/>
</g>
<g id="clust28" class="cluster">
<title>cluster_RemisionModule_providers</title>
<polygon fill="none" stroke="#000000" points="1467,-78 1467,-130 3081,-130 3081,-78 1467,-78"/>
</g>
<g id="clust35" class="cluster">
<title>cluster_SharedModule</title>
<polygon fill="none" stroke="#000000" stroke-dasharray="1,5" points="8,-70 8,-138 1451,-138 1451,-70 8,-70"/>
</g>
<g id="clust36" class="cluster">
<title>cluster_SharedModule_declarations</title>
<polygon fill="none" stroke="#000000" points="805,-78 805,-130 1443,-130 1443,-78 805,-78"/>
</g>
<g id="clust42" class="cluster">
<title>cluster_SharedModule_exports</title>
<polygon fill="none" stroke="#000000" points="385,-78 385,-130 797,-130 797,-78 385,-78"/>
</g>
<g id="clust44" class="cluster">
<title>cluster_SharedModule_providers</title>
<polygon fill="none" stroke="#000000" points="16,-78 16,-130 377,-130 377,-78 16,-78"/>
</g>
<!-- AppComponent -->
<g id="node1" class="node">
<title>AppComponent</title>
<polygon fill="#ffffb3" stroke="#000000" points="3245.9399,-198 3140.0601,-198 3140.0601,-162 3245.9399,-162 3245.9399,-198"/>
<text text-anchor="middle" x="3193" y="-175.8" font-family="Times,serif" font-size="14.00" fill="#000000">AppComponent</text>
</g>
<!-- AppModule -->
<g id="node3" class="node">
<title>AppModule</title>
<polygon fill="#8dd3c7" stroke="#000000" points="2872.6571,-263 2869.6571,-267 2848.6571,-267 2845.6571,-263 2789.3429,-263 2789.3429,-227 2872.6571,-227 2872.6571,-263"/>
<text text-anchor="middle" x="2831" y="-240.8" font-family="Times,serif" font-size="14.00" fill="#000000">AppModule</text>
</g>
<!-- AppComponent&#45;&gt;AppModule -->
<g id="edge1" class="edge">
<title>AppComponent&#45;&gt;AppModule</title>
<path fill="none" stroke="#000000" d="M3193,-198.2921C3193,-220.2057 3193,-254 3193,-254 3193,-254 2882.8796,-254 2882.8796,-254"/>
<polygon fill="#000000" stroke="#000000" points="2882.8797,-250.5001 2872.8796,-254 2882.8796,-257.5001 2882.8797,-250.5001"/>
</g>
<!-- CargandoComponent -->
<g id="node2" class="node">
<title>CargandoComponent</title>
<polygon fill="#ffffb3" stroke="#000000" points="3121.759,-198 2986.241,-198 2986.241,-162 3121.759,-162 3121.759,-198"/>
<text text-anchor="middle" x="3054" y="-175.8" font-family="Times,serif" font-size="14.00" fill="#000000">CargandoComponent</text>
</g>
<!-- CargandoComponent&#45;&gt;AppModule -->
<g id="edge2" class="edge">
<title>CargandoComponent&#45;&gt;AppModule</title>
<path fill="none" stroke="#000000" d="M3054,-198.1061C3054,-217.3391 3054,-245 3054,-245 3054,-245 2882.683,-245 2882.683,-245"/>
<polygon fill="#000000" stroke="#000000" points="2882.683,-241.5001 2872.683,-245 2882.683,-248.5001 2882.683,-241.5001"/>
</g>
<!-- CargandoComponent  -->
<g id="node7" class="node">
<title>CargandoComponent </title>
<polygon fill="#fb8072" stroke="#000000" points="2826.759,-328 2687.241,-328 2687.241,-292 2826.759,-292 2826.759,-328"/>
<text text-anchor="middle" x="2757" y="-305.8" font-family="Times,serif" font-size="14.00" fill="#000000">CargandoComponent </text>
</g>
<!-- AppModule&#45;&gt;CargandoComponent  -->
<g id="edge6" class="edge">
<title>AppModule&#45;&gt;CargandoComponent </title>
<path fill="none" stroke="#000000" stroke-dasharray="5,2" d="M2807.9006,-263.1061C2807.9006,-263.1061 2807.9006,-281.991 2807.9006,-281.991"/>
<polygon fill="#000000" stroke="#000000" points="2804.4007,-281.9909 2807.9006,-291.991 2811.4007,-281.991 2804.4007,-281.9909"/>
</g>
<!-- AppComponent  -->
<g id="node8" class="node">
<title>AppComponent </title>
<polygon fill="#80b1d3" stroke="#000000" points="2959.439,-328 2850.561,-328 2850.561,-292 2959.439,-292 2959.439,-328"/>
<text text-anchor="middle" x="2905" y="-305.8" font-family="Times,serif" font-size="14.00" fill="#000000">AppComponent </text>
</g>
<!-- AppModule&#45;&gt;AppComponent  -->
<g id="edge7" class="edge">
<title>AppModule&#45;&gt;AppComponent </title>
<path fill="none" stroke="#000000" stroke-dasharray="1,5" d="M2861.6794,-263.1061C2861.6794,-263.1061 2861.6794,-281.991 2861.6794,-281.991"/>
<polygon fill="#000000" stroke="#000000" points="2858.1794,-281.9909 2861.6794,-291.991 2865.1794,-281.991 2858.1794,-281.9909"/>
</g>
<!-- routing -->
<g id="node4" class="node">
<title>routing</title>
<polygon fill="#8dd3c7" stroke="#000000" points="2962.4435,-198 2959.4435,-202 2938.4435,-202 2935.4435,-198 2905.5565,-198 2905.5565,-162 2962.4435,-162 2962.4435,-198"/>
<text text-anchor="middle" x="2934" y="-175.8" font-family="Times,serif" font-size="14.00" fill="#000000">routing</text>
</g>
<!-- routing&#45;&gt;AppModule -->
<g id="edge3" class="edge">
<title>routing&#45;&gt;AppModule</title>
<path fill="none" stroke="#000000" d="M2932.6243,-198.027C2932.6243,-214.3976 2932.6243,-236 2932.6243,-236 2932.6243,-236 2882.9212,-236 2882.9212,-236"/>
<polygon fill="#000000" stroke="#000000" points="2882.9212,-232.5001 2872.9212,-236 2882.9212,-239.5001 2882.9212,-232.5001"/>
</g>
<!-- SharedModule -->
<g id="node5" class="node">
<title>SharedModule</title>
<polygon fill="#8dd3c7" stroke="#000000" points="2756.4231,-198 2753.4231,-202 2732.4231,-202 2729.4231,-198 2657.5769,-198 2657.5769,-162 2756.4231,-162 2756.4231,-198"/>
<text text-anchor="middle" x="2707" y="-175.8" font-family="Times,serif" font-size="14.00" fill="#000000">SharedModule</text>
</g>
<!-- SharedModule&#45;&gt;AppModule -->
<g id="edge4" class="edge">
<title>SharedModule&#45;&gt;AppModule</title>
<path fill="none" stroke="#000000" d="M2721.7909,-198.027C2721.7909,-214.3976 2721.7909,-236 2721.7909,-236 2721.7909,-236 2779.0892,-236 2779.0892,-236"/>
<polygon fill="#000000" stroke="#000000" points="2779.0893,-239.5001 2789.0892,-236 2779.0892,-232.5001 2779.0893,-239.5001"/>
</g>
<!-- MenuComponent  -->
<g id="node38" class="node">
<title>MenuComponent </title>
<polygon fill="#fb8072" stroke="#000000" points="788.9926,-122 671.0074,-122 671.0074,-86 788.9926,-86 788.9926,-122"/>
<text text-anchor="middle" x="730" y="-99.8" font-family="Times,serif" font-size="14.00" fill="#000000">MenuComponent </text>
</g>
<!-- SharedModule&#45;&gt;MenuComponent  -->
<g id="edge37" class="edge">
<title>SharedModule&#45;&gt;MenuComponent </title>
<path fill="none" stroke="#000000" stroke-dasharray="5,2" d="M2707,-161.8097C2707,-158.4624 2707,-156 2707,-156 2707,-156 730,-156 730,-156 730,-156 730,-132.1871 730,-132.1871"/>
<polygon fill="#000000" stroke="#000000" points="733.5001,-132.187 730,-122.1871 726.5001,-132.1871 733.5001,-132.187"/>
</g>
<!-- InicioComponent  -->
<g id="node39" class="node">
<title>InicioComponent </title>
<polygon fill="#fb8072" stroke="#000000" points="653.9898,-122 536.0102,-122 536.0102,-86 653.9898,-86 653.9898,-122"/>
<text text-anchor="middle" x="595" y="-99.8" font-family="Times,serif" font-size="14.00" fill="#000000">InicioComponent </text>
</g>
<!-- SharedModule&#45;&gt;InicioComponent  -->
<g id="edge38" class="edge">
<title>SharedModule&#45;&gt;InicioComponent </title>
<path fill="none" stroke="#000000" stroke-dasharray="5,2" d="M2697.1578,-161.8777C2697.1578,-159.0271 2697.1578,-157 2697.1578,-157 2697.1578,-157 595,-157 595,-157 595,-157 595,-132.2396 595,-132.2396"/>
<polygon fill="#000000" stroke="#000000" points="598.5001,-132.2396 595,-122.2396 591.5001,-132.2396 598.5001,-132.2396"/>
</g>
<!-- HeaderComponent  -->
<g id="node40" class="node">
<title>HeaderComponent </title>
<polygon fill="#fb8072" stroke="#000000" points="518.7436,-122 393.2564,-122 393.2564,-86 518.7436,-86 518.7436,-122"/>
<text text-anchor="middle" x="456" y="-99.8" font-family="Times,serif" font-size="14.00" fill="#000000">HeaderComponent </text>
</g>
<!-- SharedModule&#45;&gt;HeaderComponent  -->
<g id="edge39" class="edge">
<title>SharedModule&#45;&gt;HeaderComponent </title>
<path fill="none" stroke="#000000" stroke-dasharray="5,2" d="M2687.3156,-161.92C2687.3156,-160.1536 2687.3156,-159 2687.3156,-159 2687.3156,-159 456,-159 456,-159 456,-159 456,-132.0091 456,-132.0091"/>
<polygon fill="#000000" stroke="#000000" points="459.5001,-132.009 456,-122.0091 452.5001,-132.0091 459.5001,-132.009"/>
</g>
<!-- RemisionModule -->
<g id="node6" class="node">
<title>RemisionModule</title>
<polygon fill="#8dd3c7" stroke="#000000" points="2887.7176,-198 2884.7176,-202 2863.7176,-202 2860.7176,-198 2774.2824,-198 2774.2824,-162 2887.7176,-162 2887.7176,-198"/>
<text text-anchor="middle" x="2831" y="-175.8" font-family="Times,serif" font-size="14.00" fill="#000000">RemisionModule</text>
</g>
<!-- RemisionModule&#45;&gt;AppModule -->
<g id="edge5" class="edge">
<title>RemisionModule&#45;&gt;AppModule</title>
<path fill="none" stroke="#000000" d="M2831,-198.1061C2831,-198.1061 2831,-216.991 2831,-216.991"/>
<polygon fill="#000000" stroke="#000000" points="2827.5001,-216.9909 2831,-226.991 2834.5001,-216.991 2827.5001,-216.9909"/>
</g>
<!-- CustomHttpInterceptor -->
<g id="node9" class="node">
<title>CustomHttpInterceptor</title>
<ellipse fill="#fdb462" stroke="#000000" cx="2533" cy="-180" rx="100.7191" ry="18"/>
<text text-anchor="middle" x="2533" y="-175.8" font-family="Times,serif" font-size="14.00" fill="#000000">CustomHttpInterceptor</text>
</g>
<!-- CustomHttpInterceptor&#45;&gt;AppModule -->
<g id="edge8" class="edge">
<title>CustomHttpInterceptor&#45;&gt;AppModule</title>
<path fill="none" stroke="#000000" d="M2533,-198.1061C2533,-217.3391 2533,-245 2533,-245 2533,-245 2779.2506,-245 2779.2506,-245"/>
<polygon fill="#000000" stroke="#000000" points="2779.2506,-248.5001 2789.2506,-245 2779.2506,-241.5001 2779.2506,-248.5001"/>
</g>
<!-- CargandoService -->
<g id="node10" class="node">
<title>CargandoService</title>
<ellipse fill="#fdb462" stroke="#000000" cx="2337" cy="-180" rx="77.5685" ry="18"/>
<text text-anchor="middle" x="2337" y="-175.8" font-family="Times,serif" font-size="14.00" fill="#000000">CargandoService</text>
</g>
<!-- CargandoService&#45;&gt;AppModule -->
<g id="edge9" class="edge">
<title>CargandoService&#45;&gt;AppModule</title>
<path fill="none" stroke="#000000" d="M2337,-198.2921C2337,-220.2057 2337,-254 2337,-254 2337,-254 2779.3076,-254 2779.3076,-254"/>
<polygon fill="#000000" stroke="#000000" points="2779.3076,-257.5001 2789.3076,-254 2779.3076,-250.5001 2779.3076,-257.5001"/>
</g>
<!-- RemisionContenedorComponent -->
<g id="node11" class="node">
<title>RemisionContenedorComponent</title>
<polygon fill="#ffffb3" stroke="#000000" points="5606.3173,-122 5405.6827,-122 5405.6827,-86 5606.3173,-86 5606.3173,-122"/>
<text text-anchor="middle" x="5506" y="-99.8" font-family="Times,serif" font-size="14.00" fill="#000000">RemisionContenedorComponent</text>
</g>
<!-- RemisionContenedorComponent&#45;&gt;RemisionModule -->
<g id="edge10" class="edge">
<title>RemisionContenedorComponent&#45;&gt;RemisionModule</title>
<path fill="none" stroke="#000000" d="M5506,-122.1097C5506,-131.897 5506,-142 5506,-142 5506,-142 2884.1573,-142 2884.1573,-142 2884.1573,-142 2884.1573,-151.8903 2884.1573,-151.8903"/>
<polygon fill="#000000" stroke="#000000" points="2880.6574,-151.8903 2884.1573,-161.8903 2887.6574,-151.8904 2880.6574,-151.8903"/>
</g>
<!-- DatosPacienteComponent -->
<g id="node12" class="node">
<title>DatosPacienteComponent</title>
<polygon fill="#ffffb3" stroke="#000000" points="5387.9115,-122 5226.0885,-122 5226.0885,-86 5387.9115,-86 5387.9115,-122"/>
<text text-anchor="middle" x="5307" y="-99.8" font-family="Times,serif" font-size="14.00" fill="#000000">DatosPacienteComponent</text>
</g>
<!-- DatosPacienteComponent&#45;&gt;RemisionModule -->
<g id="edge11" class="edge">
<title>DatosPacienteComponent&#45;&gt;RemisionModule</title>
<path fill="none" stroke="#000000" d="M5307,-122.0664C5307,-131.4587 5307,-141 5307,-141 5307,-141 2880.7059,-141 2880.7059,-141 2880.7059,-141 2880.7059,-151.8701 2880.7059,-151.8701"/>
<polygon fill="#000000" stroke="#000000" points="2877.206,-151.8701 2880.7059,-161.8701 2884.206,-151.8701 2877.206,-151.8701"/>
</g>
<!-- DatosAtencionComponent -->
<g id="node13" class="node">
<title>DatosAtencionComponent</title>
<polygon fill="#ffffb3" stroke="#000000" points="5208.8061,-122 5043.1939,-122 5043.1939,-86 5208.8061,-86 5208.8061,-122"/>
<text text-anchor="middle" x="5126" y="-99.8" font-family="Times,serif" font-size="14.00" fill="#000000">DatosAtencionComponent</text>
</g>
<!-- DatosAtencionComponent&#45;&gt;RemisionModule -->
<g id="edge12" class="edge">
<title>DatosAtencionComponent&#45;&gt;RemisionModule</title>
<path fill="none" stroke="#000000" d="M5126,-122.32C5126,-130.7883 5126,-139 5126,-139 5126,-139 2877.2545,-139 2877.2545,-139 2877.2545,-139 2877.2545,-151.8975 2877.2545,-151.8975"/>
<polygon fill="#000000" stroke="#000000" points="2873.7546,-151.8974 2877.2545,-161.8975 2880.7546,-151.8975 2873.7546,-151.8974"/>
</g>
<!-- DiagnosticosComponent -->
<g id="node14" class="node">
<title>DiagnosticosComponent</title>
<polygon fill="#ffffb3" stroke="#000000" points="5025.4298,-122 4870.5702,-122 4870.5702,-86 5025.4298,-86 5025.4298,-122"/>
<text text-anchor="middle" x="4948" y="-99.8" font-family="Times,serif" font-size="14.00" fill="#000000">DiagnosticosComponent</text>
</g>
<!-- DiagnosticosComponent&#45;&gt;RemisionModule -->
<g id="edge13" class="edge">
<title>DiagnosticosComponent&#45;&gt;RemisionModule</title>
<path fill="none" stroke="#000000" d="M4948,-122.1944C4948,-130.2782 4948,-138 4948,-138 4948,-138 2873.8031,-138 2873.8031,-138 2873.8031,-138 2873.8031,-151.9445 2873.8031,-151.9445"/>
<polygon fill="#000000" stroke="#000000" points="2870.3032,-151.9444 2873.8031,-161.9445 2877.3032,-151.9445 2870.3032,-151.9444"/>
</g>
<!-- PlanManejoComponent -->
<g id="node15" class="node">
<title>PlanManejoComponent</title>
<polygon fill="#ffffb3" stroke="#000000" points="4852.4846,-122 4703.5154,-122 4703.5154,-86 4852.4846,-86 4852.4846,-122"/>
<text text-anchor="middle" x="4778" y="-99.8" font-family="Times,serif" font-size="14.00" fill="#000000">PlanManejoComponent</text>
</g>
<!-- PlanManejoComponent&#45;&gt;RemisionModule -->
<g id="edge14" class="edge">
<title>PlanManejoComponent&#45;&gt;RemisionModule</title>
<path fill="none" stroke="#000000" d="M4778,-122.0449C4778,-129.749 4778,-137 4778,-137 4778,-137 2870.3516,-137 2870.3516,-137 2870.3516,-137 2870.3516,-151.5146 2870.3516,-151.5146"/>
<polygon fill="#000000" stroke="#000000" points="2866.8517,-151.5145 2870.3516,-161.5146 2873.8517,-151.5146 2866.8517,-151.5145"/>
</g>
<!-- AdmisionComponent -->
<g id="node16" class="node">
<title>AdmisionComponent</title>
<polygon fill="#ffffb3" stroke="#000000" points="4685.0561,-122 4548.9439,-122 4548.9439,-86 4685.0561,-86 4685.0561,-122"/>
<text text-anchor="middle" x="4617" y="-99.8" font-family="Times,serif" font-size="14.00" fill="#000000">AdmisionComponent</text>
</g>
<!-- AdmisionComponent&#45;&gt;RemisionModule -->
<g id="edge15" class="edge">
<title>AdmisionComponent&#45;&gt;RemisionModule</title>
<path fill="none" stroke="#000000" d="M4617,-122.0328C4617,-128.8526 4617,-135 4617,-135 4617,-135 2866.9002,-135 2866.9002,-135 2866.9002,-135 2866.9002,-151.9561 2866.9002,-151.9561"/>
<polygon fill="#000000" stroke="#000000" points="2863.4003,-151.956 2866.9002,-161.9561 2870.4003,-151.9561 2863.4003,-151.956"/>
</g>
<!-- DatosRemisionComponent -->
<g id="node17" class="node">
<title>DatosRemisionComponent</title>
<polygon fill="#ffffb3" stroke="#000000" points="4530.6568,-122 4363.3432,-122 4363.3432,-86 4530.6568,-86 4530.6568,-122"/>
<text text-anchor="middle" x="4447" y="-99.8" font-family="Times,serif" font-size="14.00" fill="#000000">DatosRemisionComponent</text>
</g>
<!-- DatosRemisionComponent&#45;&gt;RemisionModule -->
<g id="edge16" class="edge">
<title>DatosRemisionComponent&#45;&gt;RemisionModule</title>
<path fill="none" stroke="#000000" d="M4447,-122.1432C4447,-128.4611 4447,-134 4447,-134 4447,-134 2863.4488,-134 2863.4488,-134 2863.4488,-134 2863.4488,-151.8196 2863.4488,-151.8196"/>
<polygon fill="#000000" stroke="#000000" points="2859.9489,-151.8195 2863.4488,-161.8196 2866.9489,-151.8196 2859.9489,-151.8195"/>
</g>
<!-- ModalCondicionPacienteAceptaComponent -->
<g id="node18" class="node">
<title>ModalCondicionPacienteAceptaComponent</title>
<polygon fill="#ffffb3" stroke="#000000" points="4345.7779,-122 4082.2221,-122 4082.2221,-86 4345.7779,-86 4345.7779,-122"/>
<text text-anchor="middle" x="4214" y="-99.8" font-family="Times,serif" font-size="14.00" fill="#000000">ModalCondicionPacienteAceptaComponent</text>
</g>
<!-- ModalCondicionPacienteAceptaComponent&#45;&gt;RemisionModule -->
<g id="edge17" class="edge">
<title>ModalCondicionPacienteAceptaComponent&#45;&gt;RemisionModule</title>
<path fill="none" stroke="#000000" d="M4214,-122.2015C4214,-128.028 4214,-133 4214,-133 4214,-133 2859.9974,-133 2859.9974,-133 2859.9974,-133 2859.9974,-151.963 2859.9974,-151.963"/>
<polygon fill="#000000" stroke="#000000" points="2856.4975,-151.963 2859.9974,-161.963 2863.4975,-151.963 2856.4975,-151.963"/>
</g>
<!-- ModalComponent -->
<g id="node19" class="node">
<title>ModalComponent</title>
<polygon fill="#ffffb3" stroke="#000000" points="4063.8823,-122 3946.1177,-122 3946.1177,-86 4063.8823,-86 4063.8823,-122"/>
<text text-anchor="middle" x="4005" y="-99.8" font-family="Times,serif" font-size="14.00" fill="#000000">ModalComponent</text>
</g>
<!-- ModalComponent&#45;&gt;RemisionModule -->
<g id="edge18" class="edge">
<title>ModalComponent&#45;&gt;RemisionModule</title>
<path fill="none" stroke="#000000" d="M4005,-122.207C4005,-127.5549 4005,-132 4005,-132 4005,-132 2856.546,-132 2856.546,-132 2856.546,-132 2856.546,-151.8533 2856.546,-151.8533"/>
<polygon fill="#000000" stroke="#000000" points="2853.0461,-151.8532 2856.546,-161.8533 2860.0461,-151.8533 2853.0461,-151.8532"/>
</g>
<!-- FechaPipe -->
<g id="node20" class="node">
<title>FechaPipe</title>
<polygon fill="#ffffb3" stroke="#000000" points="3928.3149,-122 3853.6851,-122 3853.6851,-86 3928.3149,-86 3928.3149,-122"/>
<text text-anchor="middle" x="3891" y="-99.8" font-family="Times,serif" font-size="14.00" fill="#000000">FechaPipe</text>
</g>
<!-- FechaPipe&#45;&gt;RemisionModule -->
<g id="edge19" class="edge">
<title>FechaPipe&#45;&gt;RemisionModule</title>
<path fill="none" stroke="#000000" d="M3891,-122.0579C3891,-126.4945 3891,-130 3891,-130 3891,-130 2853.0946,-130 2853.0946,-130 2853.0946,-130 2853.0946,-151.9489 2853.0946,-151.9489"/>
<polygon fill="#000000" stroke="#000000" points="2849.5947,-151.9488 2853.0946,-161.9489 2856.5947,-151.9489 2849.5947,-151.9488"/>
</g>
<!-- TextoBooleanoPipe -->
<g id="node21" class="node">
<title>TextoBooleanoPipe</title>
<polygon fill="#ffffb3" stroke="#000000" points="3835.7022,-122 3708.2978,-122 3708.2978,-86 3835.7022,-86 3835.7022,-122"/>
<text text-anchor="middle" x="3772" y="-99.8" font-family="Times,serif" font-size="14.00" fill="#000000">TextoBooleanoPipe</text>
</g>
<!-- TextoBooleanoPipe&#45;&gt;RemisionModule -->
<g id="edge20" class="edge">
<title>TextoBooleanoPipe&#45;&gt;RemisionModule</title>
<path fill="none" stroke="#000000" d="M3772,-122.1686C3772,-126.0459 3772,-129 3772,-129 3772,-129 2849.6432,-129 2849.6432,-129 2849.6432,-129 2849.6432,-151.8757 2849.6432,-151.8757"/>
<polygon fill="#000000" stroke="#000000" points="2846.1433,-151.8757 2849.6432,-161.8757 2853.1433,-151.8757 2846.1433,-151.8757"/>
</g>
<!-- AccionesComponent -->
<g id="node22" class="node">
<title>AccionesComponent</title>
<polygon fill="#ffffb3" stroke="#000000" points="3690.9187,-122 3557.0813,-122 3557.0813,-86 3690.9187,-86 3690.9187,-122"/>
<text text-anchor="middle" x="3624" y="-99.8" font-family="Times,serif" font-size="14.00" fill="#000000">AccionesComponent</text>
</g>
<!-- AccionesComponent&#45;&gt;RemisionModule -->
<g id="edge21" class="edge">
<title>AccionesComponent&#45;&gt;RemisionModule</title>
<path fill="none" stroke="#000000" d="M3624,-122.1903C3624,-125.5376 3624,-128 3624,-128 3624,-128 2846.1918,-128 2846.1918,-128 2846.1918,-128 2846.1918,-151.8129 2846.1918,-151.8129"/>
<polygon fill="#000000" stroke="#000000" points="2842.6919,-151.8129 2846.1918,-161.8129 2849.6919,-151.813 2842.6919,-151.8129"/>
</g>
<!-- ModalDireccionComponent -->
<g id="node23" class="node">
<title>ModalDireccionComponent</title>
<polygon fill="#ffffb3" stroke="#000000" points="3539.5744,-122 3366.4256,-122 3366.4256,-86 3539.5744,-86 3539.5744,-122"/>
<text text-anchor="middle" x="3453" y="-99.8" font-family="Times,serif" font-size="14.00" fill="#000000">ModalDireccionComponent</text>
</g>
<!-- ModalDireccionComponent&#45;&gt;RemisionModule -->
<g id="edge22" class="edge">
<title>ModalDireccionComponent&#45;&gt;RemisionModule</title>
<path fill="none" stroke="#000000" d="M3453,-122.1679C3453,-124.4478 3453,-126 3453,-126 3453,-126 2842.7403,-126 2842.7403,-126 2842.7403,-126 2842.7403,-151.7181 2842.7403,-151.7181"/>
<polygon fill="#000000" stroke="#000000" points="2839.2404,-151.718 2842.7403,-161.7181 2846.2404,-151.7181 2839.2404,-151.718"/>
</g>
<!-- EdadPipe -->
<g id="node24" class="node">
<title>EdadPipe</title>
<polygon fill="#ffffb3" stroke="#000000" points="3348.6559,-122 3279.3441,-122 3279.3441,-86 3348.6559,-86 3348.6559,-122"/>
<text text-anchor="middle" x="3314" y="-99.8" font-family="Times,serif" font-size="14.00" fill="#000000">EdadPipe</text>
</g>
<!-- EdadPipe&#45;&gt;RemisionModule -->
<g id="edge23" class="edge">
<title>EdadPipe&#45;&gt;RemisionModule</title>
<path fill="none" stroke="#000000" d="M3314,-122.08C3314,-123.8464 3314,-125 3314,-125 3314,-125 2839.2889,-125 2839.2889,-125 2839.2889,-125 2839.2889,-151.9909 2839.2889,-151.9909"/>
<polygon fill="#000000" stroke="#000000" points="2835.789,-151.9909 2839.2889,-161.9909 2842.789,-151.991 2835.789,-151.9909"/>
</g>
<!-- RemisionRoutingModule -->
<g id="node25" class="node">
<title>RemisionRoutingModule</title>
<polygon fill="#8dd3c7" stroke="#000000" points="3255.3356,-122 3252.3356,-126 3231.3356,-126 3228.3356,-122 3096.6644,-122 3096.6644,-86 3255.3356,-86 3255.3356,-122"/>
<text text-anchor="middle" x="3176" y="-99.8" font-family="Times,serif" font-size="14.00" fill="#000000">RemisionRoutingModule</text>
</g>
<!-- RemisionRoutingModule&#45;&gt;RemisionModule -->
<g id="edge24" class="edge">
<title>RemisionRoutingModule&#45;&gt;RemisionModule</title>
<path fill="none" stroke="#000000" d="M3109.3559,-122.1543C3109.3559,-123.2969 3109.3559,-124 3109.3559,-124 3109.3559,-124 2835.8375,-124 2835.8375,-124 2835.8375,-124 2835.8375,-151.973 2835.8375,-151.973"/>
<polygon fill="#000000" stroke="#000000" points="2832.3376,-151.973 2835.8375,-161.973 2839.3376,-151.973 2832.3376,-151.973"/>
</g>
<!-- RemisionContenedorService -->
<g id="node26" class="node">
<title>RemisionContenedorService</title>
<ellipse fill="#fdb462" stroke="#000000" cx="2951" cy="-104" rx="122.1306" ry="18"/>
<text text-anchor="middle" x="2951" y="-99.8" font-family="Times,serif" font-size="14.00" fill="#000000">RemisionContenedorService</text>
</g>
<!-- RemisionContenedorService&#45;&gt;RemisionModule -->
<g id="edge25" class="edge">
<title>RemisionContenedorService&#45;&gt;RemisionModule</title>
<path fill="none" stroke="#000000" d="M2832.3861,-108.5265C2832.3861,-108.5265 2832.3861,-151.6994 2832.3861,-151.6994"/>
<polygon fill="#000000" stroke="#000000" points="2828.8862,-151.6994 2832.3861,-161.6994 2835.8862,-151.6994 2828.8862,-151.6994"/>
</g>
<!-- DatosRemisionService -->
<g id="node27" class="node">
<title>DatosRemisionService</title>
<ellipse fill="#fdb462" stroke="#000000" cx="2711" cy="-104" rx="99.5732" ry="18"/>
<text text-anchor="middle" x="2711" y="-99.8" font-family="Times,serif" font-size="14.00" fill="#000000">DatosRemisionService</text>
</g>
<!-- DatosRemisionService&#45;&gt;RemisionModule -->
<g id="edge26" class="edge">
<title>DatosRemisionService&#45;&gt;RemisionModule</title>
<path fill="none" stroke="#000000" d="M2806.0184,-109.4657C2806.0184,-109.4657 2806.0184,-151.9559 2806.0184,-151.9559"/>
<polygon fill="#000000" stroke="#000000" points="2802.5185,-151.9559 2806.0184,-161.9559 2809.5185,-151.956 2802.5185,-151.9559"/>
</g>
<!-- DatosPacienteService -->
<g id="node28" class="node">
<title>DatosPacienteService</title>
<ellipse fill="#fdb462" stroke="#000000" cx="2498" cy="-104" rx="95.4578" ry="18"/>
<text text-anchor="middle" x="2498" y="-99.8" font-family="Times,serif" font-size="14.00" fill="#000000">DatosPacienteService</text>
</g>
<!-- DatosPacienteService&#45;&gt;RemisionModule -->
<g id="edge27" class="edge">
<title>DatosPacienteService&#45;&gt;RemisionModule</title>
<path fill="none" stroke="#000000" d="M2512.8096,-122.1299C2512.8096,-132.3145 2512.8096,-143 2512.8096,-143 2512.8096,-143 2801.5003,-143 2801.5003,-143 2801.5003,-143 2801.5003,-151.9336 2801.5003,-151.9336"/>
<polygon fill="#000000" stroke="#000000" points="2798.0004,-151.9335 2801.5003,-161.9336 2805.0004,-151.9336 2798.0004,-151.9335"/>
</g>
<!-- DatosAtencionService -->
<g id="node29" class="node">
<title>DatosAtencionService</title>
<ellipse fill="#fdb462" stroke="#000000" cx="2287" cy="-104" rx="97.8305" ry="18"/>
<text text-anchor="middle" x="2287" y="-99.8" font-family="Times,serif" font-size="14.00" fill="#000000">DatosAtencionService</text>
</g>
<!-- DatosAtencionService&#45;&gt;RemisionModule -->
<g id="edge28" class="edge">
<title>DatosAtencionService&#45;&gt;RemisionModule</title>
<path fill="none" stroke="#000000" d="M2322.1905,-121.1957C2322.1905,-132.0371 2322.1905,-144 2322.1905,-144 2322.1905,-144 2796.9821,-144 2796.9821,-144 2796.9821,-144 2796.9821,-151.5782 2796.9821,-151.5782"/>
<polygon fill="#000000" stroke="#000000" points="2793.4822,-151.5781 2796.9821,-161.5782 2800.4822,-151.5782 2793.4822,-151.5781"/>
</g>
<!-- DiagnosticosService -->
<g id="node30" class="node">
<title>DiagnosticosService</title>
<ellipse fill="#fdb462" stroke="#000000" cx="2081" cy="-104" rx="90.3255" ry="18"/>
<text text-anchor="middle" x="2081" y="-99.8" font-family="Times,serif" font-size="14.00" fill="#000000">DiagnosticosService</text>
</g>
<!-- DiagnosticosService&#45;&gt;RemisionModule -->
<g id="edge29" class="edge">
<title>DiagnosticosService&#45;&gt;RemisionModule</title>
<path fill="none" stroke="#000000" d="M2081,-122.0555C2081,-133.439 2081,-146 2081,-146 2081,-146 2792.464,-146 2792.464,-146 2792.464,-146 2792.464,-151.8056 2792.464,-151.8056"/>
<polygon fill="#000000" stroke="#000000" points="2788.9641,-151.8055 2792.464,-161.8056 2795.9641,-151.8056 2788.9641,-151.8055"/>
</g>
<!-- MensajesService -->
<g id="node31" class="node">
<title>MensajesService</title>
<ellipse fill="#fdb462" stroke="#000000" cx="1896" cy="-104" rx="76.4188" ry="18"/>
<text text-anchor="middle" x="1896" y="-99.8" font-family="Times,serif" font-size="14.00" fill="#000000">MensajesService</text>
</g>
<!-- MensajesService&#45;&gt;RemisionModule -->
<g id="edge30" class="edge">
<title>MensajesService&#45;&gt;RemisionModule</title>
<path fill="none" stroke="#000000" d="M1896,-122.4854C1896,-134.1399 1896,-147 1896,-147 1896,-147 2787.9458,-147 2787.9458,-147 2787.9458,-147 2787.9458,-151.9551 2787.9458,-151.9551"/>
<polygon fill="#000000" stroke="#000000" points="2784.4459,-151.9551 2787.9458,-161.9551 2791.4459,-151.9552 2784.4459,-151.9551"/>
</g>
<!-- AdmisionService -->
<g id="node32" class="node">
<title>AdmisionService</title>
<ellipse fill="#fdb462" stroke="#000000" cx="1723" cy="-104" rx="78.1675" ry="18"/>
<text text-anchor="middle" x="1723" y="-99.8" font-family="Times,serif" font-size="14.00" fill="#000000">AdmisionService</text>
</g>
<!-- AdmisionService&#45;&gt;RemisionModule -->
<g id="edge31" class="edge">
<title>AdmisionService&#45;&gt;RemisionModule</title>
<path fill="none" stroke="#000000" d="M1723,-122.1505C1723,-134.2708 1723,-148 1723,-148 1723,-148 2783.4276,-148 2783.4276,-148 2783.4276,-148 2783.4276,-151.7566 2783.4276,-151.7566"/>
<polygon fill="#000000" stroke="#000000" points="2779.9277,-151.7566 2783.4276,-161.7566 2786.9277,-151.7566 2779.9277,-151.7566"/>
</g>
<!-- AccionesService -->
<g id="node33" class="node">
<title>AccionesService</title>
<ellipse fill="#fdb462" stroke="#000000" cx="1551" cy="-104" rx="75.8393" ry="18"/>
<text text-anchor="middle" x="1551" y="-99.8" font-family="Times,serif" font-size="14.00" fill="#000000">AccionesService</text>
</g>
<!-- AccionesService&#45;&gt;RemisionModule -->
<g id="edge32" class="edge">
<title>AccionesService&#45;&gt;RemisionModule</title>
<path fill="none" stroke="#000000" d="M1551,-122.1804C1551,-135.0382 1551,-150 1551,-150 1551,-150 2778.9095,-150 2778.9095,-150 2778.9095,-150 2778.9095,-151.8568 2778.9095,-151.8568"/>
<polygon fill="#000000" stroke="#000000" points="2775.4096,-151.8568 2778.9095,-161.8568 2782.4096,-151.8568 2775.4096,-151.8568"/>
</g>
<!-- MenuComponent -->
<g id="node34" class="node">
<title>MenuComponent</title>
<polygon fill="#ffffb3" stroke="#000000" points="1434.9916,-122 1321.0084,-122 1321.0084,-86 1434.9916,-86 1434.9916,-122"/>
<text text-anchor="middle" x="1378" y="-99.8" font-family="Times,serif" font-size="14.00" fill="#000000">MenuComponent</text>
</g>
<!-- MenuComponent&#45;&gt;SharedModule -->
<g id="edge33" class="edge">
<title>MenuComponent&#45;&gt;SharedModule</title>
<path fill="none" stroke="#000000" d="M1378,-122.037C1378,-135.2913 1378,-151 1378,-151 1378,-151 2746.3689,-151 2746.3689,-151 2746.3689,-151 2746.3689,-152.0799 2746.3689,-152.0799"/>
<polygon fill="#000000" stroke="#000000" points="2742.869,-151.7985 2746.3689,-161.7985 2749.869,-151.7986 2742.869,-151.7985"/>
</g>
<!-- InicioComponent -->
<g id="node35" class="node">
<title>InicioComponent</title>
<polygon fill="#ffffb3" stroke="#000000" points="1302.9888,-122 1189.0112,-122 1189.0112,-86 1302.9888,-86 1302.9888,-122"/>
<text text-anchor="middle" x="1246" y="-99.8" font-family="Times,serif" font-size="14.00" fill="#000000">InicioComponent</text>
</g>
<!-- InicioComponent&#45;&gt;SharedModule -->
<g id="edge34" class="edge">
<title>InicioComponent&#45;&gt;SharedModule</title>
<path fill="none" stroke="#000000" d="M1246,-122.1467C1246,-135.7395 1246,-152 1246,-152 1246,-152 2736.5267,-152 2736.5267,-152 2736.5267,-152 2736.5267,-152.9793 2736.5267,-152.9793"/>
<polygon fill="#000000" stroke="#000000" points="2733.0268,-151.793 2736.5267,-161.793 2740.0268,-151.7931 2733.0268,-151.793"/>
</g>
<!-- HeaderComponent -->
<g id="node36" class="node">
<title>HeaderComponent</title>
<polygon fill="#ffffb3" stroke="#000000" points="1170.7437,-122 1049.2563,-122 1049.2563,-86 1170.7437,-86 1170.7437,-122"/>
<text text-anchor="middle" x="1110" y="-99.8" font-family="Times,serif" font-size="14.00" fill="#000000">HeaderComponent</text>
</g>
<!-- HeaderComponent&#45;&gt;SharedModule -->
<g id="edge35" class="edge">
<title>HeaderComponent&#45;&gt;SharedModule</title>
<path fill="none" stroke="#000000" d="M1110,-122.2458C1110,-136.1772 1110,-153 1110,-153 1110,-153 2726.6844,-153 2726.6844,-153 2726.6844,-153 2726.6844,-153.8841 2726.6844,-153.8841"/>
<polygon fill="#000000" stroke="#000000" points="2723.1846,-151.8408 2726.6844,-161.8408 2730.1846,-151.8409 2723.1846,-151.8408"/>
</g>
<!-- ResultadoBusquedaGridComponent -->
<g id="node37" class="node">
<title>ResultadoBusquedaGridComponent</title>
<polygon fill="#ffffb3" stroke="#000000" points="1031.1923,-122 812.8077,-122 812.8077,-86 1031.1923,-86 1031.1923,-122"/>
<text text-anchor="middle" x="922" y="-99.8" font-family="Times,serif" font-size="14.00" fill="#000000">ResultadoBusquedaGridComponent</text>
</g>
<!-- ResultadoBusquedaGridComponent&#45;&gt;SharedModule -->
<g id="edge36" class="edge">
<title>ResultadoBusquedaGridComponent&#45;&gt;SharedModule</title>
<path fill="none" stroke="#000000" d="M922,-122.1243C922,-136.7832 922,-155 922,-155 922,-155 2716.8422,-155 2716.8422,-155 2716.8422,-155 2716.8422,-155.6831 2716.8422,-155.6831"/>
<polygon fill="#000000" stroke="#000000" points="2713.3424,-151.8313 2716.8422,-161.8314 2720.3424,-151.8314 2713.3424,-151.8313"/>
</g>
<!-- PerfilService -->
<g id="node41" class="node">
<title>PerfilService</title>
<ellipse fill="#fdb462" stroke="#000000" cx="308" cy="-104" rx="61.3877" ry="18"/>
<text text-anchor="middle" x="308" y="-99.8" font-family="Times,serif" font-size="14.00" fill="#000000">PerfilService</text>
</g>
<!-- PerfilService&#45;&gt;SharedModule -->
<g id="edge40" class="edge">
<title>PerfilService&#45;&gt;SharedModule</title>
<path fill="none" stroke="#000000" d="M308,-122.027C308,-138.3976 308,-160 308,-160 308,-160 2677.4733,-160 2677.4733,-160 2677.4733,-160 2677.4733,-160.1846 2677.4733,-160.1846"/>
<polygon fill="#000000" stroke="#000000" points="2673.9739,-151.8455 2677.4733,-161.8457 2680.9739,-151.8459 2673.9739,-151.8455"/>
</g>
<!-- ComunUseCaseService -->
<g id="node42" class="node">
<title>ComunUseCaseService</title>
<ellipse fill="#fdb462" stroke="#000000" cx="126" cy="-104" rx="102.4255" ry="18"/>
<text text-anchor="middle" x="126" y="-99.8" font-family="Times,serif" font-size="14.00" fill="#000000">ComunUseCaseService</text>
</g>
<!-- ComunUseCaseService&#45;&gt;SharedModule -->
<g id="edge41" class="edge">
<title>ComunUseCaseService&#45;&gt;SharedModule</title>
<path fill="none" stroke="#000000" d="M126,-122.0352C126,-138.7344 126,-161 126,-161 126,-161 2667.6311,-161 2667.6311,-161 2667.6311,-161 2667.6311,-161.0816 2667.6311,-161.0816"/>
<polygon fill="#000000" stroke="#000000" points="2664.1325,-151.8159 2667.6311,-161.8164 2671.1325,-151.8169 2664.1325,-151.8159"/>
</g>
</g>
</svg>
